<svg 
 xmlns="http://www.w3.org/2000/svg"
 xmlns:xlink="http://www.w3.org/1999/xlink"
 width="48px" height="48px">
<path fill-rule="evenodd"  fill="rgb(14, 183, 177)"
 d="M23.999,48.000 C10.744,48.000 -0.001,37.255 -0.001,23.999 C-0.001,10.744 10.744,-0.001 23.999,-0.001 C37.254,-0.001 48.000,10.744 48.000,23.999 C48.000,37.255 37.254,48.000 23.999,48.000 ZM26.811,21.188 L9.568,9.568 L21.188,26.811 L38.431,38.431 L26.811,21.188 ZM25.299,22.700 C26.017,23.417 26.017,24.581 25.299,25.299 C24.581,26.017 23.417,26.017 22.699,25.299 C21.982,24.581 21.982,23.417 22.699,22.700 C23.417,21.982 24.581,21.982 25.299,22.700 Z"/>
</svg>