<svg xmlns="http://www.w3.org/2000/svg" xmlns:xlink="http://www.w3.org/1999/xlink" viewBox="0 0 400 400"><defs><style>.a{fill:url(#a);}.b{fill:url(#b);}.c{fill:url(#c);}.d{fill:url(#d);}.e{fill:none;stroke:#231f20;stroke-miterlimit:10;}.f{fill:url(#e);}.g{fill:url(#f);}.h{fill:url(#g);}.i{fill:#871919;}.j{fill:#c82323;}.k{fill:#1e417d;}.l{fill:#fff;}</style><linearGradient id="a" x1="48.93" y1="180.66" x2="328.16" y2="172.06" gradientUnits="userSpaceOnUse"><stop offset="0" stop-color="#05508c"/><stop offset="0.5" stop-color="#0095db"/><stop offset="1" stop-color="#05508c"/></linearGradient><linearGradient id="b" x1="83.95" y1="187.74" x2="175.99" y2="176.02" gradientUnits="userSpaceOnUse"><stop offset="0.01" stop-color="#009756"/><stop offset="1" stop-color="#008c4f"/></linearGradient><linearGradient id="c" x1="60.65" y1="147.04" x2="203.38" y2="148.83" gradientUnits="userSpaceOnUse"><stop offset="0" stop-color="#141e4b"/><stop offset="0.5" stop-color="#1e468c"/><stop offset="1" stop-color="#141e4b"/></linearGradient><linearGradient id="d" x1="49.46" y1="230.45" x2="309.11" y2="146.17" xlink:href="#c"/><linearGradient id="e" x1="42.79" y1="228.82" x2="198.43" y2="148.97" gradientUnits="userSpaceOnUse"><stop offset="0.01" stop-color="#008c41"/><stop offset="1" stop-color="#0a4b23"/></linearGradient><linearGradient id="f" x1="80.43" y1="152.61" x2="136.85" y2="176.28" xlink:href="#e"/><linearGradient id="g" x1="67.4" y1="175.38" x2="112.23" y2="175.38" gradientTransform="translate(37.7 -14.6) rotate(11.8)" gradientUnits="userSpaceOnUse"><stop offset="0.01" stop-color="#f61423"/><stop offset="1" stop-color="#ac1e23"/></linearGradient></defs><path class="a" d="M190.3,152.4c2-18.8-118-1.2-118-1.2C171.7,114.8,329,128.9,329,128.9S171.5,200.6,39,229.4c0,0,28.9-8.7,76.8-31.8C115.8,197.6,187.1,164,190.3,152.4Z"/><path class="b" d="M39.6,228.3c143.5-64.9,137.3-73.9,137.3-73.9.6-10.6-105.6,0-105.6,0s53,.6,51.1,16.6C122.4,171,127.1,184.3,39.6,228.3Z"/><path class="c" d="M190,153.2l.3-.8c2-18.8-118-1.2-118-1.2S175.5,138.8,190,153.2Z"/><path class="d" d="M39,229.4s161-14.1,290-100.5C329,128.9,171.5,200.6,39,229.4Z"/><path class="e" d="M39,229.4l3.4-1.1Z"/><path class="f" d="M39.6,228.3s124-48,136.6-72.1C172.5,161,151.9,177.5,39.6,228.3Z"/><path class="g" d="M122.5,170.1c-.2-15.1-51.2-15.7-51.2-15.7S109,156.4,122.5,170.1Z"/><ellipse class="h" cx="89.8" cy="175.4" rx="22.8" ry="11.3" transform="translate(-33.9 22) rotate(-11.8)"/><path class="i" d="M112.2,171.6v-.2c.5,6-8.2,12.6-20.1,15s-23.3-.3-24.6-6.4a6.1,6.1,0,0,1-.1-1.4,8.7,8.7,0,0,0,.1,2.3c1.5,7,12.7,10.6,25,8S113.7,178.6,112.2,171.6Z"/><path class="j" d="M7.1,273.8H22.6a8.2,8.2,0,0,0,4.7-5l4-14.7H22l-3.9,14.2s-.6,1.9-2.2,1.7a1.7,1.7,0,0,1-1.6-2.3l3.6-13.6H9L4.8,268.8A4.8,4.8,0,0,0,7.1,273.8Z"/><path class="k" d="M273.7,273.8l1-4,1.8,4h11.7l-2.5-6.3c5.2-4.2,4.8-9.1,4.8-9.1.2-2.7-.7-3.8-1.5-4.3H269.7l-5.3,19.7Zm3.8-14.5h2.1c2.6,1.1-.4,3.7-.4,3.7h-2.6Z"/><polygon class="k" points="308.5 273.8 310.1 268.1 301.9 268.1 305.9 254.1 296.7 254.1 291.5 273.8 308.5 273.8"/><polygon class="k" points="260.9 273.8 266.2 254.1 257.5 254.1 252.3 273.8 260.9 273.8"/><polygon class="k" points="332.5 273.8 334.5 266.8 336.3 273.8 345.6 273.8 350.9 254.1 341.5 254.1 339.6 261.4 337.9 254.1 329.4 254.1 324.1 273.8 332.5 273.8"/><path class="k" d="M372.6,265.5h12.1s-.5,4.3-3.2,4.5c0,0-1.8.3-1.7-2.1h-9.4s-.7,4.3,2.4,5.9h15.4a8.2,8.2,0,0,0,4.5-4.5l1.4-5.4s.6-2-.9-2.1H381.3s.1-3.6,3-3.9A1.8,1.8,0,0,1,386,260h9.1s.8-4.1-1.7-5.9H377.6a9.6,9.6,0,0,0-4.8,5.4l-1.1,4.9S371.5,265.6,372.6,265.5Z"/><polygon class="k" points="365.9 273.8 367.4 268.3 359.4 268.3 359.8 266.6 367.9 266.6 369.2 261.7 361.2 261.7 361.5 260 369.7 260 371.3 254.1 354 254.1 348.9 273.8 365.9 273.8"/><polygon class="k" points="320.6 273.8 325.9 254.1 317.2 254.1 312 273.8 320.6 273.8"/><path class="j" d="M32.8,265.5H44.9s-.6,4.3-3.2,4.5c0,0-1.8.3-1.7-2.1H30.6s-.7,4.3,2.4,5.9H48.4a8.5,8.5,0,0,0,4.5-4.5l1.4-5.4s.6-2-.9-2.1h-12s.2-3.6,3.1-3.9a1.8,1.8,0,0,1,1.7,2.1h9.1s.8-4.1-1.7-5.9H37.8a9.6,9.6,0,0,0-4.8,5.4l-1.1,4.9S31.7,265.6,32.8,265.5Z"/><polygon class="j" points="125 273.8 126.9 266.8 128.8 273.8 138.1 273.8 143.4 254.1 134 254.1 132.1 261.4 130.4 254.1 121.9 254.1 116.6 273.8 125 273.8"/><path class="j" d="M144.3,273.8h20.8v-5.5l1-4H155.2l-1.2,4.4h1.4a2.1,2.1,0,0,1-1.8,1.3s-2.1.1-1.7-2.6l2-7.7a3,3,0,0,1,2.7-1.8s1.3,0,1.4,1.7l-.5,1.8h9.3l.6-1.8s1.2-3.9-2.2-5.5H149.7c-1,.3-2.9,1.3-4.2,4.4l-2.8,10.3S142,272,144.3,273.8Z"/><path class="j" d="M84.7,273.8c.8,0,1.7-1,2.2-1.5a11.7,11.7,0,0,0,2.7-8.4s4.4-6.3.3-9.8H70.6l-5.2,19.7Zm-6.1-14.9h2.1c2.6,1.1-.4,3.8-.4,3.8H77.7ZM77,265.1h2.2c2.6,1.1-.5,3.9-.5,3.9H76Z"/><path class="j" d="M100,273.8l1.9-6.9h4l-1.7,6.9h9.1l3.9-14.7s.7-3.4-2.2-5H99.5a8.6,8.6,0,0,0-4.6,5l-3.8,14.7Zm3.8-14.2s.6-1.9,2.2-1.7a1.8,1.8,0,0,1,1.7,2.3l-.5,1.6h-4Z"/><polygon class="j" points="65.4 262.3 57.8 262.3 56.5 267.3 64.1 267.3 65.4 262.3"/><path class="k" d="M235.6,273.8l1.8-6.9h4.1l-1.8,6.9h9.2l3.8-14.7a4.6,4.6,0,0,0-2.2-5H235a8.6,8.6,0,0,0-4.5,5l-3.9,14.7Zm3.7-14.2s.6-1.9,2.2-1.7a1.8,1.8,0,0,1,1.7,2.3l-.4,1.6h-4.1Z"/><polygon class="j" points="185.4 273.8 187.1 268.1 178.9 268.1 182.8 254.1 173.6 254.1 168.4 273.8 185.4 273.8"/><path class="j" d="M197.9,273.8l1.8-6.9h4.1l-1.8,6.9h9.2l3.8-14.7a4.6,4.6,0,0,0-2.2-5H197.3a8.6,8.6,0,0,0-4.5,5l-3.9,14.7Zm3.7-14.2s.6-1.9,2.2-1.7a1.8,1.8,0,0,1,1.7,2.3l-.4,1.6H201Z"/><polygon class="l" points="205.8 172.7 203.5 171 200.9 172.2 201.8 169.5 199.9 167.4 202.8 167.4 204.2 165 205 167.7 207.8 168.3 205.5 169.9 205.8 172.7"/><polygon class="l" points="181.7 140.6 179.5 138.9 176.9 140 177.8 137.3 175.9 135.2 178.7 135.3 180.2 132.8 181 135.5 183.8 136.1 181.4 137.8 181.7 140.6"/><polygon class="l" points="166 186.5 163.7 184.8 161.1 185.9 162 183.2 160.1 181.1 163 181.2 164.4 178.7 165.2 181.4 168 182 165.7 183.7 166 186.5"/><polygon class="l" points="211.6 152 209.6 150.1 207 151 208.2 148.5 206.5 146.3 209.3 146.6 210.9 144.4 211.4 147.1 214 147.9 211.6 149.3 211.6 152"/><polygon class="l" points="223.1 137.6 220.9 135.9 218.4 137.1 219.3 134.5 217.4 132.5 220.2 132.5 221.5 130.1 222.3 132.7 225 133.3 222.8 134.9 223.1 137.6"/><polygon class="l" points="262.1 152.9 259.9 151.2 257.4 152.4 258.3 149.8 256.4 147.8 259.1 147.8 260.5 145.4 261.3 148 264 148.6 261.8 150.2 262.1 152.9"/><polygon class="l" points="236.5 162.1 234.6 160.2 231.9 161 233.1 158.5 231.5 156.3 234.3 156.7 235.9 154.4 236.4 157.1 239 158 236.6 159.3 236.5 162.1"/><polygon class="l" points="256 137.7 254 135.8 251.4 136.6 252.6 134.1 251 131.9 253.7 132.3 255.4 130 255.9 132.7 258.5 133.6 256 134.9 256 137.7"/><polygon class="l" points="292.1 138.5 290.1 136.6 287.5 137.4 288.7 135 287.1 132.7 289.8 133.1 291.4 130.9 291.9 133.6 294.5 134.5 292.1 135.8 292.1 138.5"/></svg>