<svg xmlns="http://www.w3.org/2000/svg" width= "29.6" height= "28.4" viewBox="0 0 29.6 28.4"><defs><style>.a{fill:#00babe;}.b{font-size:10.81px;font-family:Poppins-Regular, Poppins;}</style></defs><path class="a" d="M6.9,28.7a1.9,1.9,0,0,1-1-.3,1.7,1.7,0,0,1-.7-1.7l1.4-8.1L.7,12.9a1.7,1.7,0,0,1-.4-1.8A1.6,1.6,0,0,1,1.7,9.9L9.8,8.7l3.6-7.4A1.7,1.7,0,0,1,15,.4h0a1.7,1.7,0,0,1,1.6.9l3.6,7.4,8.1,1.2a1.6,1.6,0,0,1,1.4,1.2,1.7,1.7,0,0,1-.4,1.8l-5.9,5.7,1.4,8.1a1.7,1.7,0,0,1-.7,1.7,1.8,1.8,0,0,1-1.9.1L15,24.7,7.8,28.5A1.5,1.5,0,0,1,6.9,28.7ZM15,1.3h0a1,1,0,0,0-.8.5L10.4,9.5,1.8,10.8c-.3,0-.5.2-.7.6a.7.7,0,0,0,.3.8l6.2,6.1L6.1,26.8a.8.8,0,0,0,.3.8,1,1,0,0,0,.9.1l7.7-4,7.7,4a.8.8,0,0,0,.9-.1.8.8,0,0,0,.3-.8l-1.5-8.5,6.2-6.1a.7.7,0,0,0,.3-.8c-.2-.4-.4-.6-.7-.6L19.6,9.5,15.8,1.8A1,1,0,0,0,15,1.3Z" transform="translate(-0.2 -0.4)"/><text class="b" transform="translate(11.5 18.4)">4</text></svg>