<svg width="26" height="26" viewBox="0 0 26 26" fill="none" xmlns="http://www.w3.org/2000/svg">
<path d="M10.5 11.1C10.4 11.1 10.4 11.1 10.3 11L1.3 5.79999C1.1 5.69999 1 5.59999 1 5.29999C1 5.09999 1.1 4.89999 1.2 4.69999L2.2 3.69999C2.3 3.59999 2.4 3.59999 2.6 3.59999L14.4 6.39999C14.6 6.49999 14.8 6.69999 14.7 6.89999C14.6 7.09999 14.4 7.29999 14.2 7.19999L2.6 4.49999L1.8 5.19999L10.6 10.4C10.8 10.5 10.9 10.8 10.7 11C10.7 11.1 10.6 11.1 10.5 11.1Z" fill="#2E2D80" stroke="#2E2D80" stroke-width="0.5" stroke-miterlimit="10"/>
<path d="M20.7 25C20.4 25 20.2 24.9 20.1 24.7L14.1 14.5C14 14.3 14.1 14.1 14.2 13.9C14.4 13.8 14.6 13.9 14.8 14L20.7 24.1L21.5 23.3L18.4 10.3C18.3 10.1 18.5 9.89999 18.7 9.79999C18.9 9.69999 19.1 9.89999 19.2 10.1L22.4 23.3C22.4 23.4 22.4 23.6 22.3 23.7L21.3 24.7C21.1 25 20.9 25 20.7 25Z" fill="#2E2D80" stroke="#2E2D80" stroke-width="0.5" stroke-miterlimit="10"/>
<path d="M4.5 19C4.4 19 4.4 19 4.3 19L1.2 17.4C1 17.3 0.900003 17.1 0.800003 16.9C0.800003 16.7 0.800003 16.5 1 16.3L2 15.3C2.1 15.2 2.2 15.2 2.3 15.2L7.4 15.8C7.6 15.8 7.8 16 7.8 16.2C7.8 16.4 7.6 16.6 7.4 16.6L2.5 16L1.8 16.7L4.7 18.2C4.9 18.3 5 18.5 4.9 18.7C4.8 18.9 4.7 19 4.5 19Z" fill="#2E2D80" stroke="#2E2D80" stroke-width="0.5" stroke-miterlimit="10"/>
<path d="M9.3 25.1H9.2C9 25.1 8.8 24.9 8.7 24.7L6.3 20.1C6.2 19.9 6.3 19.7 6.5 19.6C6.7 19.5 6.9 19.6 7 19.8L9.3 24.3L10 23.6L9.4 18.7C9.4 18.5 9.5 18.3 9.8 18.3C10 18.3 10.2 18.4 10.2 18.7L10.8 23.8C10.8 23.9 10.8 24 10.7 24.1L9.7 25.1C9.7 25 9.5 25.1 9.3 25.1Z" fill="#2E2D80" stroke="#2E2D80" stroke-width="0.5" stroke-miterlimit="10"/>
<path d="M6.00001 20.4C5.80001 20.4 5.60001 20.2 5.60001 20C5.60001 19.8 5.80001 19.6 6.00001 19.6H6.30001C6.70001 19.6 8.50001 19.4 10 17.9C10 17.9 10.2 17.7 10.4 17.6C17.7 10.8 22.2 6.69999 22.9 5.99999C23.9 4.99999 24.2 3.99999 24.3 3.39999C24.4 2.59999 24.3 1.99999 24.2 1.89999C24.2 1.89999 23.9 1.69999 23.4 1.69999C23 1.69999 21.5 1.79999 20.2 3.09999C19.5 3.79999 15.3 8.29999 8.50001 15.7L8.10001 16C7.70001 16.4 7.30001 17 7.00001 17.5C6.90001 17.7 6.70001 17.8 6.50001 17.7C6.30001 17.6 6.20001 17.4 6.30001 17.2C6.60001 16.6 7.00001 16 7.50001 15.5L7.80001 15.2C11.8 10.9 18.5 3.49999 19.5 2.49999C21 0.999994 22.8 0.899994 23.3 0.899994C23.7 0.899994 24.4 0.999994 24.7 1.29999C25.4 1.99999 25.3 4.59999 23.5 6.49999C22.6 7.39999 16.2 13.3 10.9 18.1C10.7 18.3 10.6 18.4 10.5 18.4C8.90001 20 6.90001 20.3 6.30001 20.3L6.00001 20.4Z" fill="#2E2D80" stroke="#2E2D80" stroke-width="0.5" stroke-miterlimit="10"/>
<path d="M3.30001 23.1C3.20001 23.1 3.10001 23.1 3.00001 23C2.80001 22.8 2.80001 22.6 3.00001 22.4L8.30001 17.1C8.50001 16.9 8.70001 16.9 8.90001 17.1C9.10001 17.3 9.10001 17.5 8.90001 17.7L3.60001 23C3.50001 23.1 3.40001 23.1 3.30001 23.1Z" fill="#2E2D80" stroke="#2E2D80" stroke-width="0.5" stroke-miterlimit="10"/>
<path d="M23.1 4.1C22.9 4.1 22.7 3.9 22.7 3.7C22.7 3.5 22.5 3.3 22.3 3.3C22.1 3.3 21.9 3.1 21.9 2.9C21.9 2.7 22.1 2.5 22.3 2.5C23 2.5 23.5 3 23.5 3.7C23.5 3.9 23.3 4.1 23.1 4.1Z" fill="#2E2D80" stroke="#2E2D80" stroke-width="0.5" stroke-miterlimit="10"/>
</svg>
