<?xml version="1.0" encoding="utf-8"?>
<!-- Generator: Adobe Illustrator 25.2.1, SVG Export Plug-In . SVG Version: 6.00 Build 0)  -->
<svg version="1.1" id="Layer_1" xmlns="http://www.w3.org/2000/svg" xmlns:xlink="http://www.w3.org/1999/xlink" x="0px" y="0px"
	 viewBox="0 0 30 30" style="enable-background:new 0 0 30 30;" xml:space="preserve">
<style type="text/css">
	.st0{fill:#00BABE;}
	.st1{fill:#10B7B1;stroke:#10B7B1;stroke-width:0.5;stroke-miterlimit:10;}
	.st2{fill:#FFFFFF;}
	.st3{fill:#10B7B1;}
</style>
<g id="XMLID_1_">
	<g id="XMLID_8_">
		<path class="st1" d="M12.5,13.1c-0.1,0-0.1,0-0.2-0.1l-9-5.2c0,0,0,0,0,0C3.1,7.7,3,7.6,3,7.3c0-0.2,0.1-0.4,0.2-0.6l1-1
			c0.1-0.1,0.2-0.1,0.4-0.1l11.8,2.8c0.2,0.1,0.4,0.3,0.3,0.5c-0.1,0.2-0.3,0.4-0.5,0.3L4.6,6.5L3.8,7.2l8.8,5.2
			c0.2,0.1,0.3,0.4,0.1,0.6C12.7,13.1,12.6,13.1,12.5,13.1z"/>
	</g>
	<g id="XMLID_7_">
		<path class="st1" d="M22.7,27C22.7,27,22.7,27,22.7,27c-0.3,0-0.5-0.1-0.6-0.3c0,0,0,0,0,0l-6-10.2c-0.1-0.2,0-0.4,0.1-0.6
			c0.2-0.1,0.4,0,0.6,0.1l5.9,10.1l0.8-0.8l-3.1-13c-0.1-0.2,0.1-0.4,0.3-0.5c0.2-0.1,0.4,0.1,0.5,0.3l3.2,13.2c0,0.1,0,0.3-0.1,0.4
			l-1,1C23.1,27,22.9,27,22.7,27z"/>
	</g>
	<g id="XMLID_6_">
		<path class="st1" d="M6.5,21c-0.1,0-0.1,0-0.2,0l-3.1-1.6c0,0,0,0,0,0c-0.2-0.1-0.3-0.3-0.4-0.5c0-0.2,0-0.4,0.2-0.6l1-1
			c0.1-0.1,0.2-0.1,0.3-0.1l5.1,0.6c0.2,0,0.4,0.2,0.4,0.4s-0.2,0.4-0.4,0.4L4.5,18l-0.7,0.7l2.9,1.5c0.2,0.1,0.3,0.3,0.2,0.5
			C6.8,20.9,6.7,21,6.5,21z"/>
	</g>
	<g id="XMLID_5_">
		<path class="st1" d="M11.3,27.1c0,0-0.1,0-0.1,0c-0.2,0-0.4-0.2-0.5-0.4c0,0,0,0,0,0l-2.4-4.6c-0.1-0.2,0-0.4,0.2-0.5
			c0.2-0.1,0.4,0,0.5,0.2l2.3,4.5l0.7-0.7l-0.6-4.9c0-0.2,0.1-0.4,0.4-0.4c0.2,0,0.4,0.1,0.4,0.4l0.6,5.1c0,0.1,0,0.2-0.1,0.3l-1,1
			C11.7,27,11.5,27.1,11.3,27.1z"/>
	</g>
	<g id="XMLID_4_">
		<path class="st1" d="M8,22.4c-0.2,0-0.4-0.2-0.4-0.4c0-0.2,0.2-0.4,0.4-0.4l0.3,0c0.4,0,2.2-0.2,3.7-1.7c0,0,0,0,0,0
			c0,0,0.2-0.2,0.4-0.3C19.7,12.8,24.2,8.7,24.9,8c1-1,1.3-2,1.4-2.6c0.1-0.8,0-1.4-0.1-1.5c0,0-0.3-0.2-0.8-0.2c0,0,0,0,0,0
			c-0.4,0-1.9,0.1-3.2,1.4c-0.7,0.7-4.9,5.2-11.7,12.6L10.1,18c0,0,0,0,0,0c-0.4,0.4-0.8,1-1.1,1.5c-0.1,0.2-0.3,0.3-0.5,0.2
			c-0.2-0.1-0.3-0.3-0.2-0.5C8.6,18.6,9,18,9.5,17.5l0.3-0.3c4-4.3,10.7-11.7,11.7-12.7C23,3,24.8,2.9,25.3,2.9c0,0,0,0,0,0
			c0.4,0,1.1,0.1,1.4,0.4c0,0,0,0,0,0c0.7,0.7,0.6,3.3-1.2,5.2c-0.9,0.9-7.3,6.8-12.6,11.6c-0.2,0.2-0.3,0.3-0.4,0.3
			c-1.6,1.6-3.6,1.9-4.2,1.9l0,0c0,0,0,0,0,0L8,22.4C8,22.4,8,22.4,8,22.4z"/>
	</g>
	<g id="XMLID_3_">
		<path class="st1" d="M5.3,25.1c-0.1,0-0.2,0-0.3-0.1c-0.2-0.2-0.2-0.4,0-0.6l5.3-5.3c0.2-0.2,0.4-0.2,0.6,0c0.2,0.2,0.2,0.4,0,0.6
			L5.6,25C5.5,25.1,5.4,25.1,5.3,25.1z"/>
	</g>
	<g id="XMLID_2_">
		<path class="st1" d="M25.1,6.1c-0.2,0-0.4-0.2-0.4-0.4c0-0.2-0.2-0.4-0.4-0.4c-0.2,0-0.4-0.2-0.4-0.4s0.2-0.4,0.4-0.4
			c0.7,0,1.2,0.5,1.2,1.2C25.5,5.9,25.3,6.1,25.1,6.1z"/>
	</g>
</g>
</svg>
