<svg width="20" height="17" viewBox="0 0 20 17" fill="none" xmlns="http://www.w3.org/2000/svg">
<g clip-path="url(#clip0_256_4151)">
<path d="M0.107422 0L9.127 1.08487L6.98741 7.99054L0.107422 0Z" fill="#D83868"/>
<path d="M9.44735 1.11816L16.1495 9.33871L8.41331 12.759L7.45424 9.14007C7.45424 9.14007 7.20488 7.8252 7.59636 6.80789L9.44735 1.11816Z" fill="#D83868"/>
<path d="M16.3996 9.27284L13.9043 6.04961L18.1111 5.39258L16.3996 9.27284Z" fill="#B11116"/>
<path d="M18.4311 5.39258L20.0005 6.93825H17.7188L18.4311 5.39258Z" fill="#B11116"/>
<path d="M9.76758 12.529L16.1497 9.60254L15.9352 10.2925L9.76758 12.529Z" fill="#D93B2B"/>
<path d="M6.98763 8.71484L4.31445 17.0013L8.37828 14.0411L6.98763 8.71484Z" fill="#9E0B0F"/>
<path d="M3.60085 4.43923L0.9983 1.38086L0 1.41383L3.60085 4.43923Z" fill="#B11116"/>
<path d="M7.39453 8.68555C7.4172 8.96219 7.4512 9.14233 7.4512 9.14233L8.41027 12.7612L16.1464 9.34097L16.0749 9.25412L7.39453 8.68555Z" fill="#C4161C"/>
</g>
<defs>
<clipPath id="clip0_256_4151">
<rect width="20" height="17" fill="white"/>
</clipPath>
</defs>
</svg>
