<svg xmlns="http://www.w3.org/2000/svg" width="34.7" height="29.1" viewBox="0 0 34.7 29.1"><defs><style>.a{fill:#ffe91d;}.b{fill:#ffd400;}.c{fill:#ff9755;}.d{fill:#ff7224;}</style></defs><path class="a" d="M31.5,22.6A6.3,6.3,0,0,1,25.1,29H10.9a6.3,6.3,0,0,1-6.4-6.4V8.4A6.3,6.3,0,0,1,10.9,2H25.1a6.3,6.3,0,0,1,6.4,6.4Z" transform="translate(-0.7 -1)"/><path class="b" d="M18,2H10.9A6.3,6.3,0,0,0,4.5,8.4V22.6A6.3,6.3,0,0,0,10.9,29H18Z" transform="translate(-0.7 -1)"/><path d="M19,14.6V10.9c1.8.3,1.8,1.4,1.8,1.7h2c0-2.1-1.4-3.5-3.8-3.8V7.3H17V8.8c-2.4.3-3.8,1.7-3.8,3.8s1.4,3.6,3.8,3.9v3.7c-1.8-.3-1.8-1.4-1.8-1.8h-2c0,2.2,1.4,3.6,3.8,3.9v1.4h2V22.3c2.4-.3,3.8-1.7,3.8-3.9S21.4,14.9,19,14.6Zm-3.8-2c0-.3,0-1.4,1.8-1.7v3.5C15.2,14.1,15.2,13,15.2,12.6ZM19,20.2V16.6c1.8.4,1.8,1.4,1.8,1.8S20.8,19.9,19,20.2Z" transform="translate(-0.7 -1)"/><path class="c" d="M25.1,1H10.9A7.4,7.4,0,0,0,3.5,8.4v3.5L2.1,10.5.7,12l3.8,3.8L8.3,12,6.8,10.5,5.5,11.9V8.4A5.4,5.4,0,0,1,10.9,3H25.1a5.4,5.4,0,0,1,5.4,5.4v5.3h2V8.4A7.4,7.4,0,0,0,25.1,1Z" transform="translate(-0.7 -1)"/><path class="d" d="M35.3,19.6l-3.8-3.9-3.8,3.9L29.2,21l1.3-1.3v2.9A5.4,5.4,0,0,1,25.1,28H10.9a5.4,5.4,0,0,1-5.4-5.4V17.9h-2v4.7A7.4,7.4,0,0,0,10.9,30H25.1a7.4,7.4,0,0,0,7.4-7.4V19.7L33.9,21Z" transform="translate(-0.7 -1)"/></svg>