<svg xmlns="http://www.w3.org/2000/svg" width="30.4" height="30.4" viewBox="0 0 30.4 30.4"><defs><style>.a{fill:#fff;}.b{fill:#10b7b1;}</style></defs><path class="a" d="M7.4,26.3A15.2,15.2,0,0,1,7,4.9a15.2,15.2,0,0,1,21.4-.4l.4.4A15.1,15.1,0,0,1,7.4,26.3Z" transform="translate(-2.8 -0.3)"/><path class="b" d="M18.9,14.4V10.8c1.7.4,1.7,1.4,1.7,1.8h2c0-2.1-1.4-3.5-3.7-3.8V7.4h-2V8.8c-2.3.3-3.7,1.7-3.7,3.8s1.4,3.5,3.7,3.8V20c-1.7-.4-1.7-1.4-1.7-1.8h-2c0,2.1,1.4,3.5,3.7,3.8v1.4h2V22c2.3-.3,3.7-1.7,3.7-3.8S21.2,14.7,18.9,14.4Zm-3.7-1.8c0-.4,0-1.4,1.7-1.8v3.5C15.2,14,15.2,13,15.2,12.6ZM18.9,20V16.5c1.7.3,1.7,1.4,1.7,1.7S20.6,19.6,18.9,20Z" transform="translate(-2.8 -0.3)"/></svg>