<svg width="31" height="31" viewBox="0 0 31 31" fill="none" xmlns="http://www.w3.org/2000/svg">
<path d="M4.63473 26.0347C1.74387 23.25 0.077661 19.4309 0.00264648 15.4176C-0.072368 11.4043 1.44996 7.52559 4.23473 4.63473C7.0195 1.74387 10.8386 0.0776611 14.8519 0.00264649C18.8652 -0.0723681 22.7439 1.44996 25.6347 4.23473L26.0347 4.63473C27.4558 6.03089 28.5845 7.69613 29.355 9.53325C30.1255 11.3704 30.5224 13.3426 30.5224 15.3347C30.5224 17.3269 30.1255 19.2991 29.355 21.1362C28.5845 22.9733 27.4558 24.6386 26.0347 26.0347C24.6386 27.4558 22.9733 28.5845 21.1362 29.355C19.2991 30.1255 17.3269 30.5224 15.3347 30.5224C13.3426 30.5224 11.3704 30.1255 9.53325 29.355C7.69613 28.5845 6.03089 27.4558 4.63473 26.0347Z" fill="#687477"/>
<path d="M10.2203 8.00847C9.62457 7.9348 9.08297 8.35002 9.0085 8.93602C8.93403 9.52202 9.35715 10.0611 9.94952 10.1348L10.2169 10.1683C10.7585 10.2353 11.1647 10.6907 11.1647 11.2331L11.1681 12.2846H10.0849C9.48578 12.2846 9.00173 12.7634 9.00173 13.3561C9.00173 13.9488 9.48578 14.4277 10.0849 14.4277H11.1681V19.7854C11.1681 21.5601 12.6236 23 14.4177 23H15.5009C19.0889 23 22 20.1202 22 16.5708V15.4992C22 13.7245 20.5445 12.2846 18.7504 12.2846H18.2088C17.6097 12.2846 17.1256 12.7634 17.1256 13.3561C17.1256 13.9488 17.6097 14.4277 18.2088 14.4277H18.7504C19.3496 14.4277 19.8336 14.9065 19.8336 15.4992V16.5708C19.8336 18.9382 17.894 20.8569 15.5009 20.8569H14.4177C13.8185 20.8569 13.3345 20.3781 13.3345 19.7854V14.4277H14.4177C15.0168 14.4277 15.5009 13.9488 15.5009 13.3561C15.5009 12.7634 15.0168 12.2846 14.4177 12.2846H13.3345V11.2298C13.3345 9.60908 12.1125 8.23952 10.4877 8.0386L10.2203 8.00512V8.00847Z" fill="white"/>
</svg>
