<svg xmlns="http://www.w3.org/2000/svg" width="30.5" height="30.5" viewBox="0 0 30.5 30.5"><defs><style>.a{fill:#687477;}.b{fill:#fff;}</style></defs><path class="a" d="M7.4,26.3a15.1,15.1,0,0,1,21-21.8l.4.4a15,15,0,0,1,0,21.4A15,15,0,0,1,7.4,26.3Z" transform="translate(-2.7 -0.2)"/><path class="b" d="M18.9,14.4V10.8c1.8.4,1.8,1.4,1.8,1.7h1.9c0-2-1.4-3.4-3.7-3.7V7.3h-2V8.8c-2.3.3-3.7,1.7-3.7,3.7a3.9,3.9,0,0,0,3.7,3.9V20c-1.8-.4-1.8-1.3-1.8-1.7H13.2c0,2,1.4,3.4,3.7,3.7v1.5h2V22c2.3-.3,3.7-1.7,3.7-3.7A3.9,3.9,0,0,0,18.9,14.4Zm-3.8-1.9c0-.3,0-1.3,1.8-1.7v3.5C15.1,14,15.1,12.9,15.1,12.5ZM18.9,20V16.5c1.8.3,1.8,1.4,1.8,1.8S20.7,19.6,18.9,20Z" transform="translate(-2.7 -0.2)"/></svg>