<?xml version="1.0" encoding="utf-8"?>
<!-- Generator: Adobe Illustrator 25.2.1, SVG Export Plug-In . SVG Version: 6.00 Build 0)  -->
<svg version="1.1" id="Layer_1" xmlns="http://www.w3.org/2000/svg" xmlns:xlink="http://www.w3.org/1999/xlink" x="0px" y="0px"
	 viewBox="0 0 30 30" style="enable-background:new 0 0 30 30;" xml:space="preserve">
<style type="text/css">
	.st0{fill:#00BABE;}
	.st1{fill:#10B7B1;stroke:#10B7B1;stroke-width:0.5;stroke-miterlimit:10;}
	.st2{fill:#FFFFFF;}
	.st3{fill:#10B7B1;}
</style>
<g id="User__x2F__Users_x5F_Group_2_">
	<g id="Vector_2_">
		<path class="st1" d="M22.3,26.7c-0.4,0-0.7-0.3-0.7-0.7c0-2-3.1-3.7-6.7-3.7S8.3,24,8.3,26c0,0.4-0.3,0.7-0.7,0.7
			C7.3,26.7,7,26.4,7,26c0-1.4,0.9-2.7,2.5-3.7c1.5-0.9,3.4-1.4,5.5-1.4c2.1,0,4,0.5,5.5,1.4c1.6,1,2.5,2.3,2.5,3.7
			C23,26.4,22.7,26.7,22.3,26.7z M28.2,22.3c-0.4,0-0.7-0.3-0.7-0.7c0-1.4-1.6-2.8-3.9-3.4c-0.3-0.1-0.6-0.4-0.5-0.8
			c0.1-0.3,0.4-0.6,0.8-0.5c3,0.8,4.9,2.6,4.9,4.7C28.9,22,28.6,22.3,28.2,22.3z M1.8,22.3c-0.4,0-0.7-0.3-0.7-0.7
			c0-2.1,1.9-3.9,4.9-4.7c0.3-0.1,0.7,0.1,0.8,0.5c0.1,0.3-0.1,0.7-0.5,0.8c-2.3,0.6-3.9,2-3.9,3.4C2.4,22,2.2,22.3,1.8,22.3z
			 M15,17.9c-2.8,0-5.1-2.3-5.1-5.1c0-2.8,2.3-5.1,5.1-5.1c2.8,0,5.1,2.3,5.1,5.1C20.1,15.6,17.8,17.9,15,17.9z M15,9.1
			c-2.1,0-3.7,1.7-3.7,3.7s1.7,3.7,3.7,3.7c2.1,0,3.7-1.7,3.7-3.7S17.1,9.1,15,9.1z M23.8,12.3c-0.2,0-0.4-0.1-0.5-0.2
			c-0.2-0.3-0.2-0.7,0.1-0.9c0.8-0.7,1.2-1.7,1.2-2.8c0-2.1-1.7-3.7-3.7-3.7c-0.9,0-1.8,0.3-2.5,1c-0.3,0.2-0.7,0.2-0.9-0.1
			c-0.2-0.3-0.2-0.7,0.1-0.9c0.9-0.8,2.1-1.3,3.4-1.3c2.8,0,5.1,2.3,5.1,5.1c0,1.4-0.6,2.8-1.7,3.8C24.1,12.3,24,12.3,23.8,12.3z
			 M6.2,12.3c-0.2,0-0.3-0.1-0.4-0.2c-1.1-1-1.7-2.3-1.7-3.8c0-2.8,2.3-5.1,5.1-5.1c1.2,0,2.4,0.5,3.4,1.3c0.3,0.2,0.3,0.7,0.1,0.9
			c-0.2,0.3-0.7,0.3-0.9,0.1c-0.7-0.6-1.6-1-2.5-1c-2.1,0-3.7,1.7-3.7,3.7c0,1.1,0.5,2.1,1.2,2.8c0.3,0.2,0.3,0.7,0.1,0.9
			C6.6,12.3,6.4,12.3,6.2,12.3z"/>
	</g>
</g>
</svg>
