<svg width="40" height="33" viewBox="0 0 40 33" fill="none" xmlns="http://www.w3.org/2000/svg">
<g clip-path="url(#clip0_1_16)">
<path d="M1.67967 15.5139L4.0078 14.5471L5.91405 15.3592L3.01561 16.4742L1.67967 15.5139ZM39.9687 10.8152C39.8906 10.4672 39.625 10.1514 39.2734 9.87422C38.5312 9.28769 37.3984 8.89453 36.8515 8.75918L36.8437 8.75273H36.8281C36.6953 8.72051 36.5625 8.68828 36.414 8.6625C35.8125 8.53359 35.1328 8.43047 34.3828 8.37891C32.4297 8.25 30.0078 8.49492 27.3359 9.64863L25.8203 10.2223L25.5156 10.1707L18.6172 9.0041C18.4765 8.98477 18.3437 8.99766 18.2187 9.04922L14.664 10.5768C14.4609 10.667 14.3359 10.8475 14.3359 11.0344C14.3359 11.2213 14.4765 11.3953 14.6953 11.4727L18.3828 12.8326L18.6094 12.9164L10.1875 16.0617L7.10936 14.7469L4.28123 13.5416C4.10936 13.4643 3.89842 13.4643 3.72655 13.5416L0.32811 14.966C0.148422 15.0369 0.0234224 15.1852 -1.51378e-05 15.3463C-0.0234526 15.5074 0.0468598 15.675 0.20311 15.7846L4.47655 18.8654C4.77342 19.0846 5.03124 19.3617 5.26561 19.7227C5.52342 20.1158 6.43749 21.2695 8.39061 21.2695C8.65624 21.2695 8.93749 21.2502 9.24217 21.2051C9.28905 21.1986 13.7344 20.8119 18.4844 19.8838L16.2187 23.9508C16.1094 24.1441 16.164 24.3697 16.3437 24.5115C16.4609 24.6082 16.6094 24.6533 16.7656 24.6533C16.8515 24.6533 16.9453 24.6404 17.0312 24.6082L21.9297 22.6682C22.039 22.623 22.1328 22.5521 22.1953 22.4619L25.1562 18.1178C25.5469 17.9695 26.1172 17.7504 26.8437 17.4861C30.539 16.1068 37.414 13.5545 39.2656 12.1559C40 11.666 40.0469 11.1568 39.9687 10.8152ZM16.3515 10.9828L18.6015 10.016L23.9609 10.9184L20.1015 12.3621L16.3515 10.9828ZM21.2422 21.8303L18.0312 23.1064L21.6406 16.6354L25.875 15.0563L21.2422 21.8303ZM38.4844 11.4018C36.75 12.7102 29.7265 15.327 26.3515 16.5773C26.289 16.6031 26.2344 16.6225 26.1719 16.6418L27.3281 14.9467L27.8281 14.2184C27.9062 14.1023 27.9219 13.967 27.875 13.8445C27.8594 13.7672 27.8125 13.6963 27.7422 13.6383C27.5625 13.4771 27.2812 13.4256 27.039 13.5223L20.9219 15.8039C20.789 15.8555 20.6875 15.9457 20.625 16.0488L19.1406 18.7172C14.1328 19.7613 9.17186 20.1996 9.07811 20.2061C7.40623 20.4639 6.64842 19.7162 6.34373 19.2457C6.04686 18.7752 5.70311 18.4078 5.28123 18.1049L4.0078 17.1896L6.01561 16.4162L7.26561 15.9393L9.89842 17.0607C10.0625 17.1316 10.2578 17.1381 10.4297 17.0736L27.8828 10.551C29.9922 9.63574 31.9297 9.33926 33.5547 9.35215C33.9375 9.35215 34.2969 9.37148 34.6406 9.40371C34.7109 9.41016 34.7812 9.4166 34.8437 9.42305L32.8984 10.2287C32.6015 10.3512 32.4765 10.6541 32.6328 10.899C32.7812 11.1439 33.1484 11.2471 33.4453 11.1246L36.7109 9.77754C37.2578 9.93867 37.8515 10.2029 38.2578 10.4736C38.539 10.6605 38.7422 10.8475 38.7812 11.0086C38.789 11.0473 38.8203 11.1762 38.4844 11.4018Z" fill="#4A5372"/>
<path d="M38.4844 11.4018C36.75 12.7102 29.7266 15.327 26.3516 16.5773C26.2891 16.6031 26.2344 16.6225 26.1719 16.6418L27.3281 14.9467L27.8281 14.2184C27.9063 14.1023 27.9219 13.967 27.875 13.8445C27.8594 13.7672 27.8125 13.6963 27.7422 13.6383C27.5625 13.4771 27.2813 13.4256 27.0391 13.5223L20.9219 15.8039C20.7891 15.8555 20.6875 15.9457 20.625 16.0488L19.1406 18.7172C14.1328 19.7613 9.17187 20.1996 9.07812 20.2061C7.40625 20.4639 6.64844 19.7162 6.34375 19.2457C6.04687 18.7752 5.70312 18.4078 5.28125 18.1049L4.00781 17.1896L6.01563 16.4162L7.26563 15.9393L9.89844 17.0607C10.0625 17.1316 10.2578 17.1381 10.4297 17.0736L27.8828 10.551C29.9922 9.63574 31.9297 9.33926 33.5547 9.35215C33.9375 9.35215 34.2969 9.37148 34.6406 9.40371C34.7109 9.41015 34.7813 9.4166 34.8438 9.42304L32.8984 10.2287C32.6016 10.3512 32.4766 10.6541 32.6328 10.899C32.7813 11.1439 33.1484 11.2471 33.4453 11.1246L36.7109 9.77754C37.2578 9.93867 37.8516 10.2029 38.2578 10.4736C38.5391 10.6605 38.7422 10.8475 38.7813 11.0086C38.7891 11.0473 38.8203 11.1762 38.4844 11.4018Z" fill="#27266B"/>
<path d="M19.9531 17.2799L19.1406 18.7236C14.1328 19.7678 9.17188 20.2061 9.07813 20.2125C7.40625 20.4703 6.64844 19.7227 6.34375 19.2522C6.04688 18.7816 5.70313 18.4143 5.28125 18.1113L4.00781 17.1961L5.85156 16.4871L6.10156 16.6676C6.52344 16.9641 6.86719 17.3379 7.16406 17.8084C7.46875 18.2789 8.22656 19.0266 9.89844 18.7688C9.99219 18.7494 14.9531 18.3176 19.9531 17.2799ZM38.4844 11.4018C36.75 12.7102 29.7266 15.327 26.3516 16.5774C26.2891 16.6031 26.2344 16.6225 26.1719 16.6418L27.2188 15.1078C30.1563 14.0121 35.7734 11.9238 38.3516 10.5316C38.5859 10.6928 38.75 10.8539 38.7891 11.0022C38.7891 11.0473 38.8203 11.1762 38.4844 11.4018Z" fill="white"/>
<path d="M5.91406 15.3592L3.01562 16.4742L1.6875 15.5139L4.01563 14.5471L5.91406 15.3592ZM25.8672 15.0627L21.2422 21.8303L18.0312 23.1065L21.6406 16.6418L25.8672 15.0627ZM23.9531 10.9184L20.0938 12.3621L16.3516 10.9828L18.6016 10.016L23.9531 10.9184Z" fill="#E6ECF5"/>
<path d="M23.1016 19.1104L21.2422 21.8303L18.0313 23.1065L19.4531 20.5606L23.1016 19.1104ZM20.625 10.3576L17.8594 11.5371L16.3438 10.9828L18.5938 10.016L20.625 10.3576Z" fill="#27266B"/>
</g>
<defs>
<clipPath id="clip0_1_16">
<rect width="40" height="33" fill="white"/>
</clipPath>
</defs>
</svg>
