<?xml version="1.0" encoding="utf-8"?>
<!-- Generator: Adobe Illustrator 26.0.1, SVG Export Plug-In . SVG Version: 6.00 Build 0)  -->
<svg version="1.1" id="Layer_1" xmlns="http://www.w3.org/2000/svg" xmlns:xlink="http://www.w3.org/1999/xlink" x="0px" y="0px"
	 viewBox="0 0 512 512" style="enable-background:new 0 0 512 512;" xml:space="preserve">
<style type="text/css">
	.st0{fill:#4A5372;}
	.st1{fill:#E6ECF5;}
	.st2{fill:#C8D5E4;}
</style>
<g>
	<path class="st0" d="M21.5,240.7l29.8-15l24.4,12.6l-37.1,17.3L21.5,240.7z M511.6,167.8c-1-5.4-4.4-10.3-8.9-14.6
		c-9.5-9.1-24-15.2-31-17.3l-0.1-0.1h-0.2c-1.7-0.5-3.4-1-5.3-1.4c-7.7-2-16.4-3.6-26-4.4c-25-2-56,1.8-90.2,19.7l-19.4,8.9
		l-3.9-0.8l-88.3-18.1c-1.8-0.3-3.5-0.1-5.1,0.7l-45.5,23.7c-2.6,1.4-4.2,4.2-4.2,7.1s1.8,5.6,4.6,6.8l47.2,21.1l2.9,1.3
		l-107.8,48.8L91,228.8l-36.2-18.7c-2.2-1.2-4.9-1.2-7.1,0L4.2,232.2c-2.3,1.1-3.9,3.4-4.2,5.9s0.6,5.1,2.6,6.8l54.7,47.8
		c3.8,3.4,7.1,7.7,10.1,13.3c3.3,6.1,15,24,40,24c3.4,0,7-0.3,10.9-1c0.6-0.1,57.5-6.1,118.3-20.5l-29,63.1c-1.4,3-0.7,6.5,1.6,8.7
		c1.5,1.5,3.4,2.2,5.4,2.2c1.1,0,2.3-0.2,3.4-0.7l62.7-30.1c1.4-0.7,2.6-1.8,3.4-3.2l37.9-67.4c5-2.3,12.3-5.7,21.6-9.8
		c47.3-21.4,135.3-61,159-82.7C512,181,512.6,173.1,511.6,167.8L511.6,167.8z M209.3,170.4l28.8-15l68.6,14l-49.4,22.4L209.3,170.4z
		 M271.9,338.7l-41.1,19.8L277,258.1l54.2-24.5L271.9,338.7z M492.6,176.9c-22.2,20.3-112.1,60.9-155.3,80.3c-0.8,0.4-1.5,0.7-2.3,1
		l14.8-26.3l6.4-11.3c1-1.8,1.2-3.9,0.6-5.8c-0.2-1.2-0.8-2.3-1.7-3.2c-2.3-2.5-5.9-3.3-9-1.8l-78.3,35.4c-1.7,0.8-3,2.2-3.8,3.8
		l-19,41.4c-64.1,16.2-127.6,23-128.8,23.1c-21.4,4-31.1-7.6-35-14.9c-3.8-7.3-8.2-13-13.6-17.7l-16.3-14.2l25.7-12l16-7.4
		l33.7,17.4c2.1,1.1,4.6,1.2,6.8,0.2l223.4-101.2c27-14.2,51.8-18.8,72.6-18.6c4.9,0,9.5,0.3,13.9,0.8c0.9,0.1,1.8,0.2,2.6,0.3
		l-24.9,12.5c-3.8,1.9-5.4,6.6-3.4,10.4c1.9,3.8,6.6,5.4,10.4,3.5l41.8-20.9c7,2.5,14.6,6.6,19.8,10.8c3.6,2.9,6.2,5.8,6.7,8.3
		C496.5,171.4,496.9,173.4,492.6,176.9L492.6,176.9z"/>
	<path class="st1" d="M492.6,176.9c-22.2,20.3-112.1,60.9-155.3,80.3c-0.8,0.4-1.5,0.7-2.3,1l14.8-26.3l6.4-11.3
		c1-1.8,1.2-3.9,0.6-5.8c-0.2-1.2-0.8-2.3-1.7-3.2c-2.3-2.5-5.9-3.3-9-1.8l-78.3,35.4c-1.7,0.8-3,2.2-3.8,3.8l-19,41.4
		c-64.1,16.2-127.6,23-128.8,23.1c-21.4,4-31.1-7.6-35-14.9c-3.8-7.3-8.2-13-13.6-17.7l-16.3-14.2l25.7-12l16-7.4l33.7,17.4
		c2.1,1.1,4.6,1.2,6.8,0.2l223.4-101.2c27-14.2,51.8-18.8,72.6-18.6c4.9,0,9.5,0.3,13.9,0.8c0.9,0.1,1.8,0.2,2.6,0.3l-24.9,12.5
		c-3.8,1.9-5.4,6.6-3.4,10.4c1.9,3.8,6.6,5.4,10.4,3.5l41.8-20.9c7,2.5,14.6,6.6,19.8,10.8c3.6,2.9,6.2,5.8,6.7,8.3
		C496.5,171.4,496.9,173.4,492.6,176.9L492.6,176.9z"/>
	<path class="st2" d="M255.4,268.1L245,290.5c-64.1,16.2-127.6,23-128.8,23.1c-21.4,4-31.1-7.6-35-14.9c-3.8-7.3-8.2-13-13.6-17.7
		l-16.3-14.2l23.6-11l3.2,2.8c5.4,4.6,9.8,10.4,13.6,17.7c3.9,7.3,13.6,18.9,35,14.9C127.9,290.9,191.4,284.2,255.4,268.1z
		 M492.6,176.9c-22.2,20.3-112.1,60.9-155.3,80.3c-0.8,0.4-1.5,0.7-2.3,1l13.4-23.8c37.6-17,109.5-49.4,142.5-71
		c3,2.5,5.1,5,5.6,7.3C496.5,171.4,496.9,173.4,492.6,176.9L492.6,176.9z"/>
	<g>
		<path class="st1" d="M75.7,238.3l-37.1,17.3l-17-14.9l29.8-15L75.7,238.3z M331.1,233.7l-59.2,105l-41.1,19.8L277,258.2
			L331.1,233.7z M306.6,169.4l-49.4,22.4l-47.9-21.4l28.8-15L306.6,169.4z"/>
	</g>
	<path class="st2" d="M295.7,296.5l-23.8,42.2l-41.1,19.8L249,319L295.7,296.5z M264,160.7L228.6,179l-19.4-8.6l28.8-15L264,160.7z"
		/>
</g>
</svg>
