<?xml version="1.0" encoding="utf-8"?>
<!-- Generator: Adobe Illustrator 25.2.1, SVG Export Plug-In . SVG Version: 6.00 Build 0)  -->
<svg version="1.1" id="Layer_1" xmlns="http://www.w3.org/2000/svg" xmlns:xlink="http://www.w3.org/1999/xlink" x="0px" y="0px"
	 viewBox="0 0 30 30" style="enable-background:new 0 0 30 30;" xml:space="preserve">
<style type="text/css">
	.st0{fill:#00BABE;}
	.st1{fill:#10B7B1;stroke:#10B7B1;stroke-width:0.5;stroke-miterlimit:10;}
	.st2{fill:#FFFFFF;}
	.st3{fill:#10B7B1;}
</style>
<g>
	<path class="st1" d="M27.4,27.1H16V23c0-0.2-0.1-0.3-0.3-0.3h-1.5c-0.2,0-0.3,0.1-0.3,0.3v4.1H2.6c-0.7,0-1.2-0.5-1.2-1.2v-1.5
		c0-0.7,0.5-1.2,1.2-1.2h0.3V6.7H2.6c-0.7,0-1.2-0.5-1.2-1.2V4c0-0.7,0.5-1.2,1.2-1.2h24.8c0.7,0,1.2,0.5,1.2,1.2v1.5
		c0,0.7-0.5,1.2-1.2,1.2h-0.3v16.6h0.3c0.7,0,1.2,0.5,1.2,1.2V26C28.6,26.6,28.1,27.1,27.4,27.1z M16.9,26.2h10.5
		c0.2,0,0.3-0.1,0.3-0.3v-1.5c0-0.2-0.1-0.3-0.3-0.3h-1.2V5.8h1.2c0.2,0,0.3-0.1,0.3-0.3V4c0-0.2-0.1-0.3-0.3-0.3H2.6
		C2.4,3.8,2.3,3.9,2.3,4v1.5c0,0.2,0.1,0.3,0.3,0.3h1.2v18.4H2.6c-0.2,0-0.3,0.1-0.3,0.3V26c0,0.2,0.1,0.3,0.3,0.3h10.5V23
		c0-0.7,0.5-1.2,1.2-1.2h1.5c0.7,0,1.2,0.5,1.2,1.2V26.2z M19.8,21.3h-9.7v-0.5c0-2.7,2.2-4.8,4.8-4.8s4.8,2.2,4.8,4.8V21.3z
		 M11.1,20.4h7.8c-0.2-2-1.9-3.5-3.9-3.5S11.3,18.4,11.1,20.4z M21.7,15.5H20c-0.5,0-1-0.5-1-1v-1.8c0-0.5,0.5-1,1-1h1.8
		c0.5,0,1,0.5,1,1v1.8C22.8,15,22.3,15.5,21.7,15.5z M21.7,12.5H20c0,0-0.1,0.1-0.1,0.1v1.8c0,0,0.1,0.1,0.1,0.1h1.8
		c0,0,0.1-0.1,0.1-0.1v-1.8C21.9,12.6,21.8,12.5,21.7,12.5z M15.9,15.5h-1.8c-0.5,0-1-0.5-1-1v-1.8c0-0.5,0.5-1,1-1h1.8
		c0.5,0,1,0.5,1,1v1.8C16.9,15,16.4,15.5,15.9,15.5z M14,12.7v1.8c0,0,0.1,0.1,0.1,0.1h1.8c0,0,0.1-0.1,0.1-0.1v-1.8
		c0,0-0.1-0.1-0.1-0.1h-1.8C14.1,12.5,14,12.6,14,12.7z M10,15.5H8.3c-0.5,0-1-0.5-1-1v-1.8c0-0.5,0.5-1,1-1H10c0.5,0,1,0.5,1,1v1.8
		C11.1,15,10.6,15.5,10,15.5z M10,12.5H8.3c0,0-0.1,0.1-0.1,0.1v1.8c0,0,0.1,0.1,0.1,0.1H10c0,0,0.1-0.1,0.1-0.1v-1.8
		C10.2,12.6,10.1,12.5,10,12.5z M15.9,11.1h-1.8c-0.5,0-1-0.5-1-1V8.3c0-0.5,0.5-1,1-1h1.8c0.5,0,1,0.5,1,1V10
		C16.9,10.6,16.4,11.1,15.9,11.1z M14,8.3V10c0,0,0.1,0.1,0.1,0.1h1.8c0,0,0.1-0.1,0.1-0.1V8.3c0,0-0.1-0.1-0.1-0.1h-1.8
		C14.1,8.1,14,8.2,14,8.3z M10,11.1H8.3c-0.5,0-1-0.5-1-1V8.3c0-0.5,0.5-1,1-1H10c0.5,0,1,0.5,1,1V10C11.1,10.6,10.6,11.1,10,11.1z
		 M8.1,8.3V10c0,0,0.1,0.1,0.1,0.1H10c0,0,0.1-0.1,0.1-0.1V8.3c0,0-0.1-0.1-0.1-0.1H8.3C8.2,8.1,8.1,8.2,8.1,8.3z M21.7,11.1H20
		c-0.5,0-1-0.5-1-1V8.3c0-0.5,0.5-1,1-1h1.8c0.5,0,1,0.5,1,1V10C22.8,10.6,22.3,11.1,21.7,11.1z M21.7,8.1H20c0,0-0.1,0.1-0.1,0.1
		V10c0,0,0.1,0.1,0.1,0.1h1.8c0,0,0.1-0.1,0.1-0.1V8.3C21.9,8.2,21.8,8.1,21.7,8.1z"/>
</g>
</svg>
