<svg xmlns="http://www.w3.org/2000/svg" width="29.8" height="30.3" viewBox="0 0 29.8 30.3"><defs><style>.a{fill:#687477;}.b,.c{fill:none;stroke-miterlimit:10;}.b{stroke:#485154;stroke-width:0.25px;}.c{stroke:#687477;}</style></defs><polygon class="a" points="0 29.8 6.7 29.8 6.7 28.9 0.9 28.9 0.9 13 6.7 13 6.7 12 0 12 0 29.8"/><polygon class="a" points="23.1 12 23.1 13 28.9 13 28.9 28.9 23.1 28.9 23.1 29.8 29.8 29.8 29.8 12 23.1 12"/><path class="b" d="M8.4,15H5.5v2.9H8.4Zm-1,1.9H6.5V16h.9Z" transform="translate(-3.1 -0.6)"/><path class="b" d="M8.4,19.3H5.5v2.9H8.4Zm-1,2H6.5v-1h.9Z" transform="translate(-3.1 -0.6)"/><path class="b" d="M5.5,26.6H8.4V23.7H5.5Zm1-2h.9v1H6.5Z" transform="translate(-3.1 -0.6)"/><path class="b" d="M30.5,15H27.6v2.9h2.9Zm-1,1.9h-.9V16h.9Z" transform="translate(-3.1 -0.6)"/><path class="b" d="M27.6,22.2h2.9V19.3H27.6v2.9Zm1-1.9h.9v1h-.9Z" transform="translate(-3.1 -0.6)"/><path class="b" d="M27.6,26.6h2.9V23.7H27.6v2.9Zm1-2h.9v1h-.9Z" transform="translate(-3.1 -0.6)"/><path class="c" d="M26.2,30.4H9.8V4.4H26.2v26Z" transform="translate(-3.1 -0.6)"/><polygon class="a" points="22.6 0.9 22.6 0 21.6 0 21.2 0 8.7 0 8.2 0 7.2 0 7.2 0.9 8.2 0.9 8.2 4.1 9.1 4.1 9.1 0.9 20.7 0.9 20.7 4.1 21.6 4.1 21.6 0.9 22.6 0.9"/><path class="b" d="M15.1,6.8H12.2V9.7h2.9V6.8Zm-.9,2h-1v-1h1Z" transform="translate(-3.1 -0.6)"/><path class="b" d="M19.4,6.8H16.6V9.7h2.8Zm-.9,2h-1v-1h1Z" transform="translate(-3.1 -0.6)"/><path class="b" d="M23.8,6.8H20.9V9.7h2.9V6.8Zm-1,2h-1v-1h1Z" transform="translate(-3.1 -0.6)"/><path class="a" d="M22.8,21.8H11.7v.9h1v7.7H23.3V22.7h1v-.9H22.8Zm-9.1.9h3.8v1.9H17a1.5,1.5,0,0,0-1.4,1.5A1.4,1.4,0,0,0,17,27.5h.5v1.9H13.7Zm3.8,3.9H17c-.2,0-.4-.3-.4-.5a.5.5,0,0,1,.4-.5h.5Zm1-1H19a.5.5,0,0,1,.4.5c0,.2-.2.5-.4.5h-.5Zm3.8,3.8H18.5V27.5H19a1.4,1.4,0,0,0,1.4-1.4A1.5,1.5,0,0,0,19,24.6h-.5V22.7h3.8Z" transform="translate(-3.1 -0.6)"/><path class="b" d="M12.2,14.1h2.9V11.2H12.2Zm1-2h1v1h-1Z" transform="translate(-3.1 -0.6)"/><path class="b" d="M16.6,14.1h2.8V11.2H16.6Zm.9-2h1v1h-1Z" transform="translate(-3.1 -0.6)"/><path class="b" d="M20.9,14.1h2.9V11.2H20.9Zm.9-2h1v1h-1Z" transform="translate(-3.1 -0.6)"/><path class="b" d="M12.2,18.4h2.9V15.5H12.2Zm1-1.9h1v.9h-1Z" transform="translate(-3.1 -0.6)"/><path class="b" d="M16.6,18.4h2.8V15.5H16.6Zm.9-1.9h1v.9h-1Z" transform="translate(-3.1 -0.6)"/><path class="b" d="M20.9,18.4h2.9V15.5H20.9Zm.9-1.9h1v.9h-1Z" transform="translate(-3.1 -0.6)"/><rect class="a" x="8.7" y="19.2" width="10.6" height="0.96"/><rect class="a" x="20.2" y="19.2" width="1" height="0.96"/></svg>