<svg width="512" height="512" viewBox="0 0 512 512" fill="none" xmlns="http://www.w3.org/2000/svg">
<path d="M47.9999 476H464C503.5 474.7 506 421.4 472 413.1V124C472 101.9 454.1 84 432 84H408V60C408 46.8 397.2 36 384 36H240C226.8 36 216 46.8 216 60V84H192C169.9 84 152 101.9 152 124V140H87.9999C61.4999 140 39.9999 161.5 39.9999 188V413.1C4.1999 422.7 10.5999 475.5 47.9999 476ZM232 60C232 55.6 235.6 52 240 52H384C388.4 52 392 55.6 392 60V92C392 96.4 388.4 100 384 100H240C235.6 100 232 96.4 232 92V60ZM168 124C168 110.8 178.8 100 192 100H217.5C220.9 109.6 229.9 116 240 116H384C394.1 116 403.2 109.6 406.5 100H432C445.2 100 456 110.8 456 124V412H392V324C392 306.4 377.6 292 360 292H264C246.4 292 232 306.4 232 324V412H168V124ZM376 324V412H320V308H360C368.8 308 376 315.2 376 324ZM304 308V412H248V324C248 315.2 255.2 308 264 308H304ZM55.9999 188C55.9999 170.4 70.3999 156 87.9999 156H152V172H95.9999C87.1999 172 79.9999 179.2 79.9999 188V220C79.9999 228.8 87.1999 236 95.9999 236H152V252H95.9999C87.1999 252 79.9999 259.2 79.9999 268V300C79.9999 308.8 87.1999 316 95.9999 316H152V332H95.9999C87.1999 332 79.9999 339.2 79.9999 348V380C79.9999 388.8 87.1999 396 95.9999 396H152V412H55.9999V188ZM152 188V220H95.9999V188H152ZM152 268V300H95.9999V268H152ZM152 348V380H95.9999V348H152ZM47.9999 428H464C485.2 428.6 485 459.5 464 460H47.9999C26.7999 459.4 27.0999 428.5 47.9999 428Z" fill="#4A5372"/>
<path d="M417 237.7V170.4C417 151.8 401.9 136.7 383.3 136.7H248.7C230.1 136.7 215 151.8 215 170.4V237.7C215 256.3 230.1 271.4 248.7 271.4H383.3C401.9 271.3 417 256.2 417 237.7ZM247 151.1H385C394.6 151.1 402.3 160.6 402.3 172.3V235.7C402.3 247.4 394.5 257 385 257H247C237.4 257 229.7 247.5 229.7 235.8V172.4C229.7 160.6 237.4 151.1 247 151.1ZM256 80C259 80 260.1 80.8 262.5 82.5C265.7 84.8 270.2 88 278.3 88C292.7 89 296.1 74.2 307.2 82.5C310.4 84.8 314.9 88 323 88C331.2 88 335.6 84.8 338.9 82.5C350 74.2 353.5 89 367.9 88C378.4 87.8 378.4 72.2 367.9 72C364.9 72 363.7 71.2 361.3 69.5C358 67.2 353.6 64 345.4 64C337.2 64 332.8 67.2 329.5 69.5C327.1 71.2 326 72 322.9 72C319.9 72 318.8 71.2 316.4 69.5C313.2 67.2 308.7 64 300.6 64C292.4 64 288 67.2 284.8 69.5C273.8 77.8 270.4 63 256 64C245.5 64.2 245.5 79.8 256 80Z" fill="#4A5372"/>
<rect x="195" y="132" width="247" height="149" fill="white"/>
<path d="M237.426 214H301.574C306.227 214 310 217.816 310 222.525V260.475C310 265.183 306.227 269 301.574 269H237.426C232.772 269 229 265.183 229 260.475V222.525C229 217.817 232.772 214 237.426 214Z" stroke="#4A5372" stroke-width="10"/>
<path d="M237.426 144H301.574C306.227 144 310 147.816 310 152.525V190.475C310 195.183 306.227 199 301.574 199H237.426C232.772 199 229 195.183 229 190.475V152.525C229 147.816 232.772 144 237.426 144Z" stroke="#4A5372" stroke-width="10"/>
<path d="M334.426 214H398.574C403.227 214 407 217.816 407 222.525V260.475C407 265.183 403.227 269 398.574 269H334.426C329.773 269 326 265.183 326 260.475V222.525C326 217.817 329.773 214 334.426 214Z" stroke="#4A5372" stroke-width="10"/>
<path d="M334.426 144H398.574C403.227 144 407 147.816 407 152.525V190.475C407 195.183 403.227 199 398.574 199H334.426C329.773 199 326 195.183 326 190.475V152.525C326 147.816 329.773 144 334.426 144Z" stroke="#4A5372" stroke-width="10"/>
</svg>
