<svg width="512" height="512" viewBox="0 0 512 512" fill="none" xmlns="http://www.w3.org/2000/svg">
<g clip-path="url(#clip0_12_2)">
<mask id="mask0_12_2" style="mask-type:luminance" maskUnits="userSpaceOnUse" x="0" y="0" width="512" height="512">
<path d="M512 0H0V512H512V0Z" fill="white"/>
</mask>
<g mask="url(#mask0_12_2)">
<mask id="mask1_12_2" style="mask-type:luminance" maskUnits="userSpaceOnUse" x="0" y="0" width="683" height="683">
<path d="M682.665 682.667H0V0.00201416H682.665V682.667Z" fill="white"/>
</mask>
<g mask="url(#mask1_12_2)">
<path d="M10 256.935V181.868C10 159.735 27.8666 141.868 49.9999 141.868H241.999C264.133 141.868 281.999 159.735 281.999 181.868V301.868" stroke="#00BABE" stroke-width="26.6666" stroke-miterlimit="10" stroke-linecap="round" stroke-linejoin="round"/>
<path d="M239.066 462.001H49.9999C27.8666 462.001 10 444.134 10 422.001V346.935" stroke="#00BABE" stroke-width="26.6666" stroke-miterlimit="10" stroke-linecap="round" stroke-linejoin="round"/>
<path d="M241.999 482.401V321.601C241.999 310.801 250.799 302.001 261.599 302.001H482.399C493.199 302.001 501.999 310.801 501.999 321.601V482.401C501.999 493.201 493.199 502.001 482.399 502.001H261.599C250.799 502.001 241.999 493.201 241.999 482.401Z" stroke="#00BABE" stroke-width="26.6666" stroke-miterlimit="10" stroke-linecap="round" stroke-linejoin="round"/>
<path d="M241.999 453.201V350.668C268.933 350.668 290.799 328.801 290.799 301.868H453.332C453.332 328.801 475.199 350.668 502.132 350.668V453.201C475.199 453.201 453.332 475.068 453.332 502.001H290.799C290.799 475.068 268.933 453.201 241.999 453.201Z" stroke="#00BABE" stroke-width="26.6666" stroke-miterlimit="10" stroke-linecap="round" stroke-linejoin="round"/>
<path d="M186 10.002H106C94.9331 10.002 85.9998 18.9354 85.9998 30.002V142.002H205.999V30.002C205.999 18.9354 197.066 10.002 186 10.002Z" stroke="#00BABE" stroke-width="26.6666" stroke-miterlimit="10" stroke-linecap="round" stroke-linejoin="round"/>
<path d="M397.999 254.001H345.999C334.932 254.001 325.999 262.935 325.999 274.001V302.001H417.999V274.001C417.999 262.935 409.066 254.001 397.999 254.001Z" stroke="#00BABE" stroke-width="26.6666" stroke-miterlimit="10" stroke-linecap="round" stroke-linejoin="round"/>
<path d="M92.2664 50.0019H202.666" stroke="#00BABE" stroke-width="26.6666" stroke-miterlimit="10" stroke-linecap="round" stroke-linejoin="round"/>
<path d="M69.9999 502.001C58.9333 502.001 50 493.067 50 482.001V462.001H89.9999V482.001C89.9999 493.067 81.0666 502.001 69.9999 502.001Z" stroke="#00BABE" stroke-width="26.6666" stroke-miterlimit="10" stroke-linecap="round" stroke-linejoin="round"/>
<path d="M221.999 502.001C233.066 502.001 241.999 493.067 241.999 482.001V462.001H202V482.001C202 493.067 210.933 502.001 221.999 502.001Z" stroke="#00BABE" stroke-width="26.6666" stroke-miterlimit="10" stroke-linecap="round" stroke-linejoin="round"/>
<path d="M305.999 304.535V499.467" stroke="#00BABE" stroke-width="26.6666" stroke-miterlimit="10" stroke-linecap="round" stroke-linejoin="round"/>
<path d="M437.999 304.535V499.467" stroke="#00BABE" stroke-width="26.6666" stroke-miterlimit="10" stroke-linecap="round" stroke-linejoin="round"/>
<path d="M125.333 278.001C125.333 294.935 111.6 308.668 94.6664 308.668C77.7331 308.668 63.9998 294.935 63.9998 278.001C63.9998 261.068 77.7331 247.335 94.6664 247.335C111.6 247.335 125.333 261.068 125.333 278.001Z" stroke="#00BABE" stroke-width="26.6666" stroke-miterlimit="10" stroke-linecap="round" stroke-linejoin="round"/>
<path d="M110.933 390.134L137.733 343.868C141.466 337.468 150.666 337.468 154.266 343.868L181.066 390.134C184.8 396.534 180.133 404.534 172.8 404.534H119.2C111.866 404.534 107.333 396.534 110.933 390.134Z" stroke="#00BABE" stroke-width="26.6666" stroke-miterlimit="10" stroke-linecap="round" stroke-linejoin="round"/>
<path d="M231.733 260.801H177.066V206.135H231.733V260.801Z" stroke="#00BABE" stroke-width="26.6666" stroke-miterlimit="10" stroke-linecap="round" stroke-linejoin="round"/>
</g>
<path d="M512 0H0V512H512V0Z" stroke="#00BABE" stroke-miterlimit="10"/>
<path d="M512 0H0V512H512V0Z" fill="white"/>
<path d="M76.1049 143H153V420H51V167.215C51 153.842 62.2399 143 76.1049 143Z" fill="#00BABE" stroke="#717D9E" stroke-width="3"/>
<path d="M98.2259 176H155V235H98.2259C93.1305 235 89 230.905 89 225.855V185.145C89 180.094 93.1305 176 98.2259 176Z" fill="white" stroke="#717D9E" stroke-width="2"/>
<path d="M101.226 254H158V313H101.226C96.1305 313 92 308.905 92 303.855V263.145C92 258.094 96.1305 254 101.226 254Z" fill="white" stroke="#717D9E" stroke-width="2"/>
<path d="M98.2259 335H155V394H98.2259C93.1305 394 89 389.905 89 384.855V344.145C89 339.094 93.1305 335 98.2259 335Z" fill="white" stroke="#717D9E" stroke-width="2"/>
<path d="M228 56.7215C228 51.3525 232.325 47 237.66 47H389.34C394.675 47 399 51.3525 399 56.7215V100.279C399 105.647 394.675 110 389.34 110H237.66C232.325 110 228 105.647 228 100.279V56.7215Z" fill="#00BABE"/>
<path d="M253.411 301H370.589C378.548 301 385 307.537 385 315.6V411H239V315.6C239 307.537 245.452 301 253.411 301Z" fill="#00BABE" stroke="#717D9E" stroke-width="2"/>
<path d="M47.9999 476H464C503.5 474.7 506 421.4 472 413.1V124C472 101.9 454.1 84 432 84H408V60C408 46.8 397.2 36 384 36H240C226.8 36 216 46.8 216 60V84H192C169.9 84 152 101.9 152 124V140H87.9999C61.4999 140 39.9999 161.5 39.9999 188V413.1C4.19991 422.7 10.5999 475.5 47.9999 476ZM232 60C232 55.6 235.6 52 240 52H384C388.4 52 392 55.6 392 60V92C392 96.4 388.4 100 384 100H240C235.6 100 232 96.4 232 92V60ZM168 124C168 110.8 178.8 100 192 100H217.5C220.9 109.6 229.9 116 240 116H384C394.1 116 403.2 109.6 406.5 100H432C445.2 100 456 110.8 456 124V412H392V324C392 306.4 377.6 292 360 292H264C246.4 292 232 306.4 232 324V412H168V124ZM376 324V412H320V308H360C368.8 308 376 315.2 376 324ZM304 308V412H248V324C248 315.2 255.2 308 264 308H304ZM55.9999 188C55.9999 170.4 70.3999 156 87.9999 156H152V172H95.9999C87.1999 172 79.9999 179.2 79.9999 188V220C79.9999 228.8 87.1999 236 95.9999 236H152V252H95.9999C87.1999 252 79.9999 259.2 79.9999 268V300C79.9999 308.8 87.1999 316 95.9999 316H152V332H95.9999C87.1999 332 79.9999 339.2 79.9999 348V380C79.9999 388.8 87.1999 396 95.9999 396H152V412H55.9999V188ZM152 188V220H95.9999V188H152ZM152 268V300H95.9999V268H152ZM152 348V380H95.9999V348H152ZM47.9999 428H464C485.2 428.6 485 459.5 464 460H47.9999C26.7999 459.4 27.0999 428.5 47.9999 428Z" fill="#717D9E"/>
<path d="M229.426 213H293.574C298.227 213 302 216.816 302 221.525V259.475C302 264.183 298.227 268 293.574 268H229.426C224.772 268 221 264.183 221 259.475V221.525C221 216.817 224.772 213 229.426 213Z" fill="#00BABE" stroke="#717D9E" stroke-width="5"/>
<path d="M229.426 143H293.574C298.227 143 302 146.816 302 151.525V189.475C302 194.183 298.227 198 293.574 198H229.426C224.772 198 221 194.183 221 189.475V151.525C221 146.816 224.772 143 229.426 143Z" fill="#00BABE" stroke="#717D9E" stroke-width="5"/>
<path d="M326.426 213H390.574C395.227 213 399 216.816 399 221.525V259.475C399 264.183 395.227 268 390.574 268H326.426C321.773 268 318 264.183 318 259.475V221.525C318 216.817 321.773 213 326.426 213Z" fill="#00BABE" stroke="#717D9E" stroke-width="5"/>
<path d="M326.426 143H390.574C395.227 143 399 146.816 399 151.525V189.475C399 194.183 395.227 198 390.574 198H326.426C321.773 198 318 194.183 318 189.475V151.525C318 146.816 321.773 143 326.426 143Z" fill="#00BABE" stroke="#717D9E" stroke-width="5"/>
<path d="M236.667 68C236.667 75.3638 242.636 81.3333 250 81.3333C257.364 81.3333 263.333 75.3638 263.333 68C263.333 60.6362 257.364 54.6667 250 54.6667C242.636 54.6667 236.667 60.6362 236.667 68ZM285.44 83L284.466 85.3023C285.174 85.602 285.981 85.5592 286.653 85.1862L285.44 83ZM307.974 70.5L309.171 68.3056C308.419 67.8952 307.51 67.8984 306.761 68.3139L307.974 70.5ZM330.876 83L329.678 85.1944C330.439 85.6095 331.36 85.6012 332.113 85.1727L330.876 83ZM357.229 68L358.896 66.1366C358.095 65.4204 356.926 65.2958 355.992 65.8273L357.229 68ZM360.667 83C360.667 90.3638 366.636 96.3333 374 96.3333C381.364 96.3333 387.333 90.3638 387.333 83C387.333 75.6362 381.364 69.6667 374 69.6667C366.636 69.6667 360.667 75.6362 360.667 83ZM249.026 70.3023L284.466 85.3023L286.415 80.6977L250.974 65.6977L249.026 70.3023ZM286.653 85.1862L309.186 72.6862L306.761 68.3139L284.228 80.8138L286.653 85.1862ZM306.776 72.6944L329.678 85.1944L332.074 80.8056L309.171 68.3056L306.776 72.6944ZM332.113 85.1727L358.466 70.1727L355.992 65.8273L329.639 80.8273L332.113 85.1727ZM355.562 69.8634L372.333 84.8634L375.667 81.1366L358.896 66.1366L355.562 69.8634Z" fill="white"/>
</g>
</g>
<defs>
<clipPath id="clip0_12_2">
<rect width="512" height="512" fill="white"/>
</clipPath>
</defs>
</svg>
