<svg width="15" height="15" viewBox="0 0 15 15" fill="none" xmlns="http://www.w3.org/2000/svg">
<path d="M13.6152 7.78861C13.6152 7.99053 13.6152 8.16361 13.5864 8.33668C13.5287 9.14436 13.3267 9.89435 13.0094 10.5867C12.8941 10.8751 12.7498 11.1347 12.5768 11.3943C11.3652 13.2982 9.23065 14.5674 6.8076 14.5674C5.76916 14.5674 4.7884 14.3366 3.92303 13.9328C1.61536 12.8655 0 10.5001 0 7.78861C0 5.10595 1.55767 2.79829 3.7788 1.70215C3.60572 1.93291 3.43265 2.16368 3.28842 2.42329C3.28842 2.45214 3.25957 2.45214 3.25957 2.48098C3.17304 2.56752 3.0865 2.62521 2.99996 2.71175C2.88458 2.79829 2.79804 2.91367 2.68266 3.00021L2.62497 3.0579L2.56727 3.11559C2.53843 3.14444 2.50958 3.20213 2.45189 3.23098C2.3942 3.31751 2.30766 3.40405 2.24997 3.49059C1.96151 3.86558 1.73075 4.26942 1.55767 4.70211C1.52883 4.73096 1.52883 4.78865 1.49998 4.81749C1.47113 4.87519 1.47113 4.93288 1.44229 4.96172C1.44229 4.99057 1.41344 5.01941 1.41344 5.04826C1.3846 5.1348 1.35575 5.19249 1.32691 5.27903C1.29806 5.33672 1.29806 5.39441 1.26921 5.42326C1.26921 5.4521 1.24037 5.48095 1.24037 5.50979C1.24037 5.56748 1.21152 5.62518 1.21152 5.68287L1.12499 6.20209C1.12499 6.25978 1.12499 6.28863 1.09614 6.34632V7.03862C1.09614 8.88475 1.93267 10.5578 3.28842 11.6251C4.32687 12.4616 5.62493 12.9809 7.03837 12.9809C8.33643 12.9809 9.51911 12.577 10.4999 11.8559C11.221 11.3366 11.7979 10.6732 12.2306 9.89435C12.2883 9.77897 12.346 9.69243 12.4037 9.57705C12.7498 8.85591 12.9518 8.07707 12.9518 7.24054V7.03862C12.9518 6.8367 12.9518 6.66362 12.9229 6.4617L12.9518 6.49055C13.0383 6.57709 13.1248 6.63478 13.2114 6.72132C13.2979 6.57709 13.3844 6.4617 13.471 6.31748C13.5287 6.57709 13.5575 6.8367 13.5864 7.12516C13.6152 7.38477 13.6152 7.58669 13.6152 7.78861Z" fill="#ED1C24"/>
<path d="M7.61608 2.33651L6.34686 0C4.24112 0.951911 2.79883 3.05765 2.79883 5.50954C2.79883 6.74991 3.17382 7.90374 3.80843 8.85565C3.75074 8.53835 3.75074 8.22105 3.75074 7.8749C3.77959 5.36531 5.36611 3.23073 7.61608 2.33651Z" fill="#F7941D"/>
<path d="M8.62488 3.49056C9.14411 3.34634 9.72102 3.28864 10.2691 3.28864C10.6152 3.28864 10.9902 3.31749 11.3075 3.37518L11.2787 2.33673L11.221 0.25984C10.9902 0.230994 10.7306 0.202148 10.471 0.202148C9.31718 0.202148 8.24989 0.577143 7.38451 1.1829L8.07681 2.45212C6.83644 2.8848 5.82683 3.75018 5.19223 4.87516C4.87492 5.42323 4.64415 6.05784 4.55762 6.72129C4.73069 6.37514 4.93261 6.05784 5.16338 5.76938C5.99991 4.67324 7.21144 3.83671 8.62488 3.49056Z" fill="#ED1C24"/>
<path d="M11.6539 2.30762L11.7116 3.77875C11.2212 3.63452 10.7308 3.54798 10.1828 3.54798C9.17317 3.54798 8.22126 3.83644 7.38473 4.32682C6.34629 4.96143 5.53861 5.97103 5.13477 7.1537C5.53861 6.60563 6.02898 6.11526 6.6059 5.74026C7.44243 5.19219 8.45203 4.87489 9.51932 4.87489C10.327 4.87489 11.077 5.04796 11.7693 5.36527C12.2885 5.59603 12.75 5.91333 13.1539 6.31718L13.9616 5.10565L15 3.51914C14.0769 2.76915 12.9231 2.30762 11.6539 2.30762Z" fill="#F7941D"/>
<path d="M12.9513 7.09573V7.29765C12.9513 8.50917 12.4609 9.51877 12.4032 9.63416C12.3456 9.74954 12.2879 9.83608 12.2302 9.95146C11.7975 10.7303 11.2206 11.3938 10.4994 11.913C9.51867 12.6053 8.33599 13.038 7.03793 13.038C5.62449 13.038 4.29758 12.5476 3.28798 11.6822C1.96108 10.5861 1.0957 8.94186 1.0957 7.09573V6.40343C1.0957 6.34573 1.0957 6.31689 1.12455 6.2592L1.21109 5.73997C1.21109 5.68228 1.23993 5.62459 1.23993 5.5669C1.23993 5.53805 1.26878 5.50921 1.26878 5.48036C1.29762 5.42267 1.29762 5.36498 1.32647 5.33613C1.35532 5.24959 1.38416 5.16306 1.41301 5.10536C1.41301 5.07652 1.44185 5.04767 1.44185 5.01883C1.4707 4.96114 1.4707 4.90344 1.49954 4.8746C1.52839 4.84575 1.52839 4.78806 1.55724 4.75921C1.73031 4.32653 1.98992 3.92269 2.24953 3.54769C2.30723 3.46115 2.39376 3.37461 2.45145 3.28808C2.4803 3.25923 2.50915 3.20154 2.56684 3.17269C2.59568 3.14385 2.59568 3.115 2.62453 3.115C2.65338 3.08616 2.65338 3.05731 2.68222 3.05731C2.76876 2.94193 2.88414 2.85539 2.99952 2.76885C3.08606 2.68232 3.1726 2.62462 3.25914 2.53809C3.25914 2.56693 3.23029 2.56693 3.23029 2.59578C3.23029 2.62462 3.20144 2.65347 3.20144 2.65347C2.8553 3.34577 2.62453 4.1823 2.53799 5.04767C2.50915 5.27844 2.50915 5.50921 2.50915 5.76882C2.50915 8.88417 4.32643 11.3938 6.5764 11.3938H6.80717C7.12447 11.3938 7.44177 11.3361 7.75908 11.2784C9.2879 10.8745 10.4129 9.46108 10.4129 7.81687V7.73033C10.384 6.74958 9.9802 5.85536 9.31675 5.24959C9.77828 5.24959 10.2398 5.33613 10.6725 5.45151C11.509 5.65343 12.259 6.05728 12.9225 6.5765L12.9513 6.60535C12.9225 6.72073 12.9513 6.92265 12.9513 7.09573Z" fill="#F7941D"/>
<path d="M12.9515 7.09587V7.29779C12.9515 8.567 12.3746 9.66314 12.3746 9.66314C12.3169 9.77853 12.2592 9.86506 12.2015 9.98045C11.7688 10.7593 11.163 11.4227 10.4419 11.942C9.43228 12.692 8.22076 13.0669 6.95155 13.0669C5.56695 13.0669 4.24004 12.5766 3.17275 11.7112C1.78815 10.5862 0.980469 8.88431 0.980469 7.09587C0.980469 5.30743 1.78815 3.60553 3.17275 2.48054L3.23044 2.42285C3.23044 2.4517 3.20159 2.4517 3.20159 2.48054C3.20159 2.50939 3.17275 2.50939 3.17275 2.53823C1.817 3.66322 1.03816 5.30743 1.03816 7.09587C1.03816 8.88431 1.817 10.5285 3.20159 11.6823C4.24004 12.5477 5.59579 13.0093 6.95155 13.0093C8.19191 13.0093 9.40343 12.6343 10.413 11.8843C11.1342 11.365 11.7111 10.7016 12.1438 9.92276C12.2015 9.80737 12.2592 9.72084 12.288 9.60545C12.288 9.60545 12.8649 8.53816 12.8649 7.26894V7.06702C12.8649 6.8651 12.8649 6.69203 12.8361 6.49011V6.46126L12.8649 6.49011L12.8938 6.51895C12.9515 6.74972 12.9515 6.92279 12.9515 7.09587Z" fill="#F7941D"/>
</svg>
