<svg xmlns="http://www.w3.org/2000/svg" width="34" height="31" viewBox="0 0 34 31"><defs><style>.a,.b{fill:none;stroke:#687477;stroke-miterlimit:10;}.b{stroke-width:0.5px;}</style></defs><path class="a" d="M24.9,23.4h-.7a7.8,7.8,0,0,0-3.1.6,12.5,12.5,0,0,0-4.4-3.1l-.9-.3a12.7,12.7,0,0,0-2.8-.3,10.3,10.3,0,0,0-3.5.6,10.5,10.5,0,0,0-7,9.7h29A7.2,7.2,0,0,0,24.9,23.4Zm-14.3.4a7.3,7.3,0,0,0-4.5,4.4.5.5,0,0,1-.5.3H5.4a.6.6,0,0,1-.3-.7,8.5,8.5,0,0,1,5.1-4.9.5.5,0,0,1,.7.3C11,23.4,10.8,23.7,10.6,23.8Z" transform="translate(-1 -0.1)"/><path class="b" d="M22.9,14a4.8,4.8,0,0,1,2.3.7c.3-1.5.7-2.9,1-4.1L24,9.7h0A22.9,22.9,0,0,0,17,20h0a11.8,11.8,0,0,1,4.4,2.8,8.7,8.7,0,0,1,2.8-.5h.5c0-.8-.1-1.6-.1-2.3h-.4a7.4,7.4,0,0,0-3-.8.5.5,0,0,1,0-1,8.5,8.5,0,0,1,3.5.9c0-1.2.2-2.3.3-3.4h-.2a3.9,3.9,0,0,0-1.9-.5.6.6,0,0,1-.6-.6C22.4,14.3,22.6,14,22.9,14Z" transform="translate(-1 -0.1)"/><path class="b" d="M29.5,3.8A6,6,0,0,0,22.6.5s2.2,1.3,1.9,3.1c0,0-3.5-2-7.1,2.2,0,0,6.7-.4,7.5,3.2l1.6.6s4.5.6,4.6,4.3a5.4,5.4,0,0,0,1.2-5,2.3,2.3,0,0,1,2.3,1.4S36.2,3.6,29.5,3.8Z" transform="translate(-1 -0.1)"/><path class="b" d="M11.9,13.9a12.9,12.9,0,0,0-1.7-1.6h0l-1.9.8a30.9,30.9,0,0,1,1.2,6.7,13.4,13.4,0,0,1,3.5-.5,8.6,8.6,0,0,1,2.3.2c-.1-.4-.3-.7-.4-1.1s-.2.1-.3,0H11.7c-.3,0-.5-.1-.5-.4s.1-.5.4-.6h2.7a13.4,13.4,0,0,0-1.7-2.7h-.2l-1.4.4-.3.2-.4-.2a.5.5,0,0,1,0-.7A3.4,3.4,0,0,1,11.9,13.9Z" transform="translate(-1 -0.1)"/><path class="b" d="M3.3,11.5a4.3,4.3,0,0,0,.9,4.1c.1-3,3.8-3.5,3.8-3.5l1.3-.5C10,8.7,15.5,9,15.5,9c-3-3.4-5.9-1.8-5.9-1.8s1.6-2.6,1.6-2.6C6.9,3.9,5.6,7.3,5.6,7.3c-5.5-.1-4.2,5.4-4.2,5.4A1.9,1.9,0,0,1,3.3,11.5Z" transform="translate(-1 -0.1)"/></svg>