<?xml version="1.0" encoding="utf-8"?>
<!-- Generator: Adobe Illustrator 25.2.1, SVG Export Plug-In . SVG Version: 6.00 Build 0)  -->
<svg version="1.1" id="Layer_1" xmlns="http://www.w3.org/2000/svg" xmlns:xlink="http://www.w3.org/1999/xlink" x="0px" y="0px"
	 viewBox="0 0 30 30" style="enable-background:new 0 0 30 30;" xml:space="preserve">
<style type="text/css">
	.st0{fill:#00BABE;}
	.st1{fill:#10B7B1;stroke:#10B7B1;stroke-width:0.5;stroke-miterlimit:10;}
	.st2{fill:#FFFFFF;}
	.st3{fill:#10B7B1;}
</style>
<g>
	<g>
		<g>
			<path class="st1" d="M15.3,6.4c-3,0-5.4,2.4-5.4,5.4c0,3,2.4,5.4,5.4,5.4c3,0,5.4-2.4,5.4-5.4C20.7,8.8,18.3,6.4,15.3,6.4z
				 M12.1,8.7c0.5-0.5,1-0.8,1.7-1.1C13.5,8,13.3,8.4,13.1,9h-1.2C11.9,8.9,12,8.8,12.1,8.7z M11.5,9.5h1.4
				c-0.2,0.6-0.3,1.4-0.3,2.1h-1.8C10.9,10.8,11.1,10.1,11.5,9.5z M10.8,12.1h1.8c0,0.8,0.1,1.5,0.3,2.1h-1.4
				C11.1,13.6,10.9,12.8,10.8,12.1z M12.1,15c-0.1-0.1-0.2-0.2-0.3-0.3h1.2c0.1,0.2,0.2,0.5,0.3,0.7c0.1,0.3,0.3,0.5,0.5,0.7
				C13.2,15.8,12.6,15.5,12.1,15z M15.1,16.3c-0.1,0-0.1,0-0.2,0c-0.1-0.1-0.2-0.1-0.3-0.2c-0.4-0.3-0.7-0.8-0.9-1.4h1.5L15.1,16.3
				L15.1,16.3z M15.1,14.2h-1.7c-0.2-0.6-0.3-1.3-0.3-2.1h2V14.2z M15.1,11.6h-2c0-0.8,0.1-1.5,0.3-2.1h1.7V11.6z M15.1,9h-1.5
				c0.1-0.2,0.1-0.3,0.2-0.4c0.2-0.4,0.5-0.7,0.7-1c0.1-0.1,0.2-0.2,0.3-0.2c0.1,0,0.1,0,0.2,0L15.1,9L15.1,9z M19.8,11.6H18
				c0-0.8-0.1-1.5-0.3-2.1h1.4C19.5,10.1,19.7,10.8,19.8,11.6z M18.5,8.7c0.1,0.1,0.2,0.2,0.3,0.3h-1.2c-0.1-0.2-0.2-0.5-0.3-0.7
				C17.1,8,17,7.8,16.8,7.6C17.4,7.8,18,8.2,18.5,8.7z M15.6,7.3c0.1,0,0.1,0,0.2,0c0.1,0.1,0.2,0.1,0.3,0.2
				c0.4,0.3,0.7,0.8,0.9,1.4h-1.5L15.6,7.3L15.6,7.3z M15.6,9.5h1.7c0.2,0.6,0.3,1.3,0.3,2.1h-2L15.6,9.5L15.6,9.5z M15.6,12.1h2
				c0,0.8-0.1,1.5-0.3,2.1h-1.7V12.1z M16.1,16.1c-0.1,0.1-0.2,0.2-0.3,0.2c-0.1,0-0.1,0-0.2,0v-1.6h1.5c-0.1,0.2-0.1,0.3-0.2,0.4
				C16.6,15.5,16.4,15.8,16.1,16.1z M18.5,15c-0.5,0.5-1,0.8-1.7,1.1c0.3-0.4,0.6-0.8,0.8-1.4h1.2C18.7,14.8,18.6,14.9,18.5,15z
				 M19.1,14.2h-1.4c0.2-0.6,0.3-1.4,0.3-2.1h1.8C19.7,12.8,19.5,13.6,19.1,14.2z"/>
		</g>
		<g>
			<path class="st3" d="M10.1,20.2H8.6l-0.1,0.1v3.9l0.1,0.1h0.7l0.1-0.1v-1.3l0,0h0.7c0.9,0,1.4-0.5,1.4-1.3
				C11.5,20.8,11,20.2,10.1,20.2z M10.1,22H9.4l0,0v-1l0,0h0.7c0.4,0,0.6,0.2,0.6,0.5C10.7,21.8,10.5,22,10.1,22z"/>
		</g>
		<g>
			<path class="st3" d="M14,20.2h-0.7l-0.1,0.1l-1.4,3.9l0,0.1h0.8l0.1-0.1l0.2-0.7h1.4l0.2,0.7l0.1,0.1h0.8l0-0.1L14,20.2L14,20.2z
				 M13.1,22.7l0.5-1.4h0l0.5,1.4H13.1z"/>
		</g>
		<g>
			<path class="st3" d="M17.5,21.8l-0.2,0c-0.5-0.1-0.6-0.2-0.6-0.4c0-0.3,0.2-0.4,0.5-0.4c0.3,0,0.6,0.1,0.9,0.3l0.1,0l0.4-0.5
				l0-0.1c-0.3-0.3-0.8-0.4-1.4-0.4c-0.9,0-1.4,0.5-1.4,1.2c0,0.7,0.5,1.1,1.3,1.2l0.2,0c0.5,0.1,0.6,0.2,0.6,0.4
				c0,0.3-0.2,0.5-0.7,0.5c-0.4,0-0.8-0.2-1-0.4l-0.1,0l-0.4,0.5l0,0.1c0.3,0.3,0.9,0.5,1.5,0.5c1,0,1.6-0.5,1.6-1.3
				C18.8,22.3,18.3,21.9,17.5,21.8z"/>
		</g>
		<g>
			<path class="st3" d="M21,21.8l-0.2,0c-0.5-0.1-0.6-0.2-0.6-0.4c0-0.3,0.2-0.4,0.5-0.4c0.3,0,0.6,0.1,0.9,0.3l0.1,0l0.4-0.5l0-0.1
				c-0.3-0.3-0.8-0.4-1.4-0.4c-0.9,0-1.4,0.5-1.4,1.2c0,0.7,0.5,1.1,1.3,1.2l0.2,0c0.5,0.1,0.6,0.2,0.6,0.4c0,0.3-0.2,0.5-0.7,0.5
				c-0.4,0-0.8-0.2-1-0.4l-0.1,0l-0.4,0.5l0,0.1c0.3,0.3,0.9,0.5,1.5,0.5c1,0,1.6-0.5,1.6-1.3C22.3,22.3,21.8,21.9,21,21.8z"/>
		</g>
	</g>
	<g>
		<path class="st1" d="M21.2,29H8.8c-2.4,0-4.4-2-4.4-4.4V5.4C4.4,3,6.4,1,8.8,1h12.4c2.4,0,4.4,2,4.4,4.4v19.2
			C25.6,27,23.6,29,21.2,29z M8.8,2C7,2,5.5,3.5,5.5,5.4v19.2C5.5,26.5,7,28,8.8,28h12.4c1.8,0,3.3-1.5,3.3-3.3V5.4
			C24.5,3.5,23,2,21.2,2H8.8z"/>
	</g>
</g>
</svg>
