<svg xmlns="http://www.w3.org/2000/svg" width="34.2" height="13.8" viewBox="0 0 34.2 13.8"><defs><style>.a{fill:none;stroke:#687477;stroke-miterlimit:10;stroke-width:0.5px;}.b{fill:#687477;}</style></defs><path class="a" d="M34.8,14.4c-.1-1.5-7.6-1.2-7.6-1.2L24,8.7H9.4L7.3,13.2H1.2v4.7l3.9,1.3a3.3,3.3,0,0,1,6.6.4H24.4a3.4,3.4,0,0,1,6.7-.6l2.8-.3S35,15.8,34.8,14.4ZM8.9,13.2l1.4-3.4h5.5l.9,3.4Zm8.6,0-.9-3.4h7.1l2.1,3.4Z" transform="translate(-0.9 -8.5)"/><circle class="b" cx="7.5" cy="11.3" r="2.5"/><circle class="b" cx="26.9" cy="11.2" r="2.5"/></svg>