<svg xmlns="http://www.w3.org/2000/svg" width="34.5" height="13.9" viewBox="0 0 34.5 13.9"><defs><style>.a{fill:#a9fff0;stroke:#485154;}.a,.b{stroke-miterlimit:10;stroke-width:0.25px;}.b{fill:#10b7b1;stroke:#687477;}.c{fill:#687477;}</style></defs><polygon class="a" points="9.5 0.6 23.7 0.6 27.1 5.2 7.4 5.2 9.5 0.6"/><path class="b" d="M35.1,14.3c-.1-1.4-7.8-1.1-7.8-1.1L24.1,8.6H9.2L7.1,13.2H.9v4.7l3.9,1.3a3.5,3.5,0,0,1,3.4-2.9,3.5,3.5,0,0,1,3.4,3.3h13A3.4,3.4,0,0,1,28,16.3a3.5,3.5,0,0,1,3.3,2.9l2.9-.4S35.3,15.8,35.1,14.3ZM8.7,13.2l1.5-3.5h5.6l.9,3.5Zm8.8,0-.9-3.5h7.2L26,13.2Z" transform="translate(-0.7 -8.5)"/><circle class="c" cx="7.5" cy="11.4" r="2.5"/><circle class="c" cx="27.2" cy="11.2" r="2.5"/></svg>