<?xml version="1.0" encoding="utf-8"?>
<!-- Generator: Adobe Illustrator 26.0.1, SVG Export Plug-In . SVG Version: 6.00 Build 0)  -->
<svg version="1.1" id="Layer_1" xmlns="http://www.w3.org/2000/svg" xmlns:xlink="http://www.w3.org/1999/xlink" x="0px" y="0px"
	 viewBox="0 0 512 512" style="enable-background:new 0 0 512 512;" xml:space="preserve">
<style type="text/css">
	.st0{fill:none;stroke:#4A5372;stroke-width:15.0336;stroke-linecap:round;stroke-linejoin:round;stroke-miterlimit:10.0224;}
</style>
<g>
	<path class="st0" d="M397.9,40.3v-4.7c0-16.8-14.6-29.8-31.3-27.8L85,40.5c-4.7,0.5-8.3,4.5-8.3,9.3"/>
	<path class="st0" d="M435.3,127.1v347.3c0,16.6-13.5,30.1-30.1,30.1H86.8c-5.5,0-10-4.5-10-10V50.3c0-5.5,4.5-10,10-10h318.4
		c16.6,0,30.1,13.5,30.1,30.1v28.1"/>
	<circle class="st0" cx="256" cy="217.9" r="109.4"/>
	<ellipse class="st0" cx="256" cy="217.9" rx="44" ry="109.4"/>
	<path class="st0" d="M156.3,175.9h199.4 M156.3,259.8h199.4 M169.1,447c-18.6,0-33.8-15.1-33.8-33.8l0,0
		c0-18.6,15.1-33.8,33.8-33.8h173.7c18.6,0,33.8,15.1,33.8,33.8l0,0c0,18.6-15.1,33.8-33.8,33.8H197.2"/>
</g>
</svg>
