<svg xmlns="http://www.w3.org/2000/svg" width="30" height="30" viewBox="0 0 30 30"><defs><style>.a{fill:#687477;}.b{fill:none;stroke:#687477;stroke-miterlimit:10;stroke-width:0.5px;}</style></defs><path class="a" d="M31.5.5h-11A1.5,1.5,0,0,0,19,2a.5.5,0,0,0,.4.5H5.4A2.4,2.4,0,0,0,3,4.9V28a2.5,2.5,0,0,0,2.5,2.5h13a2,2,0,0,0,1.1-.3.1.1,0,0,1,.1.1l.8.2h11A1.5,1.5,0,0,0,33,29V2A1.5,1.5,0,0,0,31.5.5ZM4,4.9A1.4,1.4,0,0,1,5.4,3.5H19V5H4ZM20,28a1.5,1.5,0,0,1-1.5,1.5H5.5A1.5,1.5,0,0,1,4,28V6H18.5A1.5,1.5,0,0,1,20,7.5Zm8.5,1.5h-8A2.5,2.5,0,0,0,21,28V22h7.5Zm0-8.5H21V7.5a2.6,2.6,0,0,0-1-2h0V3a.5.5,0,0,0-.4-.5A.5.5,0,0,0,20,2a.5.5,0,0,1,.5-.5h8ZM32,29a.5.5,0,0,1-.5.5h-2V1.5h2A.5.5,0,0,1,32,2Z" transform="translate(-3 -0.5)"/><path class="a" d="M27,2.5a.5.5,0,0,0-.5.5v9.5a.5.5,0,0,0,1,0V3A.5.5,0,0,0,27,2.5Z" transform="translate(-3 -0.5)"/><path class="a" d="M27,14a.5.5,0,0,0-.5.5V19a.5.5,0,0,0,1,0V14.5A.5.5,0,0,0,27,14Z" transform="translate(-3 -0.5)"/><path class="a" d="M24.5,2.5H22a.5.5,0,0,0-.5.5.5.5,0,0,0,.5.5h2.5A.5.5,0,0,0,25,3,.5.5,0,0,0,24.5,2.5Z" transform="translate(-3 -0.5)"/><path class="a" d="M23.5,4.5H22a.5.5,0,0,0-.5.5.5.5,0,0,0,.5.5h1.5A.5.5,0,0,0,24,5,.5.5,0,0,0,23.5,4.5Z" transform="translate(-3 -0.5)"/><path class="a" d="M24.5,6.5H22a.5.5,0,0,0,0,1h2.5a.5.5,0,0,0,0-1Z" transform="translate(-3 -0.5)"/><path class="a" d="M24.5,8.5H22a.5.5,0,0,0,0,1h2.5a.5.5,0,0,0,0-1Z" transform="translate(-3 -0.5)"/><path class="a" d="M23.5,10.5H22a.5.5,0,0,0,0,1h1.5a.5.5,0,0,0,0-1Z" transform="translate(-3 -0.5)"/><path class="a" d="M24.5,12.5H22a.5.5,0,0,0,0,1h2.5a.5.5,0,0,0,0-1Z" transform="translate(-3 -0.5)"/><path class="a" d="M24.5,14.5H22a.5.5,0,0,0,0,1h2.5a.5.5,0,0,0,0-1Z" transform="translate(-3 -0.5)"/><path class="a" d="M23.5,16.5H22a.5.5,0,0,0,0,1h1.5a.5.5,0,0,0,0-1Z" transform="translate(-3 -0.5)"/><path class="a" d="M24.5,18.5H22a.5.5,0,0,0,0,1h2.5a.5.5,0,0,0,0-1Z" transform="translate(-3 -0.5)"/><path class="a" d="M24.8,23.2a2.7,2.7,0,1,0,2.7,2.7A2.7,2.7,0,0,0,24.8,23.2Zm0,4.4a1.7,1.7,0,1,1,1.7-1.7A1.8,1.8,0,0,1,24.8,27.6Z" transform="translate(-3 -0.5)"/><path class="a" d="M17,22H7a.5.5,0,0,0,0,1H17a.5.5,0,0,0,0-1Z" transform="translate(-3 -0.5)"/><path class="a" d="M9,24H7a.5.5,0,0,0,0,1H9a.5.5,0,0,0,0-1Z" transform="translate(-3 -0.5)"/><path class="a" d="M17,24H11a.5.5,0,0,0,0,1h6a.5.5,0,0,0,0-1Z" transform="translate(-3 -0.5)"/><path class="a" d="M17,26H15a.5.5,0,0,0,0,1h2a.5.5,0,0,0,0-1Z" transform="translate(-3 -0.5)"/><path class="a" d="M13,26H7a.5.5,0,0,0,0,1h6a.5.5,0,0,0,0-1Z" transform="translate(-3 -0.5)"/><path class="b" d="M12.1,9A5.1,5.1,0,1,1,7,14.1,5.1,5.1,0,0,1,12.1,9Z" transform="translate(-3 -0.5)"/><line class="b" x1="9.1" y1="8.5" x2="9.1" y2="18.6"/><line class="b" x1="14.1" y1="13.6" x2="4" y2="13.6"/><path class="b" d="M11.7,9a6.9,6.9,0,0,0-2.2,5.1,6.8,6.8,0,0,0,2.2,5" transform="translate(-3 -0.5)"/><path class="b" d="M12.4,9a6.8,6.8,0,0,1,2.3,5.1,6.7,6.7,0,0,1-2.3,5" transform="translate(-3 -0.5)"/><path class="b" d="M8.2,10.8s.8,1.6,3.9,1.6S16,10.8,16,10.8" transform="translate(-3 -0.5)"/><path class="b" d="M8.2,17.3s.8-1.6,3.9-1.6S16,17.3,16,17.3" transform="translate(-3 -0.5)"/></svg>